ISO-10303-21;
HEADER;
/* Generated by software containing ST-Developer
 * from STEP Tools, Inc. (www.steptools.com) 
 */

FILE_DESCRIPTION(
/* description */ (''),
/* implementation_level */ '2;1');

FILE_NAME(
/* name */ 'HackPad_BottomCase.step',
/* time_stamp */ '2026-04-02T16:36:25+08:00',
/* author */ (''),
/* organization */ (''),
/* preprocessor_version */ 'ST-DEVELOPER v20.1',
/* originating_system */ 'Autodesk Translation Framework v14.24.0.0',
/* authorisation */ '');

FILE_SCHEMA (('AUTOMOTIVE_DESIGN { 1 0 10303 214 3 1 1 }'));
ENDSEC;

DATA;
#10=MECHANICAL_DESIGN_GEOMETRIC_PRESENTATION_REPRESENTATION('',(#13),#1325);
#11=SHAPE_REPRESENTATION_RELATIONSHIP('SRR','None',#1332,#12);
#12=ADVANCED_BREP_SHAPE_REPRESENTATION('',(#14),#1324);
#13=STYLED_ITEM('',(#1342),#14);
#14=MANIFOLD_SOLID_BREP('Body1',#745);
#15=(
BOUNDED_SURFACE()
B_SPLINE_SURFACE(2,2,((#1270,#1271,#1272),(#1273,#1274,#1275),(#1276,#1277,
#1278)),.UNSPECIFIED.,.F.,.F.,.F.)
B_SPLINE_SURFACE_WITH_KNOTS((3,3),(3,3),(0.,1.5707963267949),(-1.5707963267949,
0.),.UNSPECIFIED.)
GEOMETRIC_REPRESENTATION_ITEM()
RATIONAL_B_SPLINE_SURFACE(((1.,0.707106781186548,1.),(0.70710678118654,
0.499999999999995,0.70710678118654),(1.,0.707106781186548,1.)))
REPRESENTATION_ITEM('')
SURFACE()
);
#16=(
BOUNDED_SURFACE()
B_SPLINE_SURFACE(2,2,((#1282,#1283,#1284),(#1285,#1286,#1287),(#1288,#1289,
#1290)),.UNSPECIFIED.,.F.,.F.,.F.)
B_SPLINE_SURFACE_WITH_KNOTS((3,3),(3,3),(0.,1.57079632679491),(0.,1.5707963267949),
 .UNSPECIFIED.)
GEOMETRIC_REPRESENTATION_ITEM()
RATIONAL_B_SPLINE_SURFACE(((1.,0.707106781186548,1.),(0.707106781186539,
0.499999999999994,0.707106781186539),(1.,0.707106781186548,1.)))
REPRESENTATION_ITEM('')
SURFACE()
);
#17=(
BOUNDED_SURFACE()
B_SPLINE_SURFACE(2,2,((#1297,#1298,#1299),(#1300,#1301,#1302),(#1303,#1304,
#1305)),.UNSPECIFIED.,.F.,.F.,.F.)
B_SPLINE_SURFACE_WITH_KNOTS((3,3),(3,3),(0.,1.5707963267949),(1.5707963267949,
3.14159265358979),.UNSPECIFIED.)
GEOMETRIC_REPRESENTATION_ITEM()
RATIONAL_B_SPLINE_SURFACE(((1.,0.707106781186548,1.),(0.707106781186541,
0.499999999999996,0.707106781186541),(1.,0.707106781186548,1.)))
REPRESENTATION_ITEM('')
SURFACE()
);
#18=(
BOUNDED_SURFACE()
B_SPLINE_SURFACE(2,2,((#1309,#1310,#1311),(#1312,#1313,#1314),(#1315,#1316,
#1317)),.UNSPECIFIED.,.F.,.F.,.F.)
B_SPLINE_SURFACE_WITH_KNOTS((3,3),(3,3),(0.,1.5707963267949),(-3.14159265358979,
-1.5707963267949),.UNSPECIFIED.)
GEOMETRIC_REPRESENTATION_ITEM()
RATIONAL_B_SPLINE_SURFACE(((1.,0.707106781186548,1.),(0.707106781186543,
0.499999999999997,0.707106781186543),(1.,0.707106781186548,1.)))
REPRESENTATION_ITEM('')
SURFACE()
);
#19=FACE_BOUND('',#233,.T.);
#20=FACE_BOUND('',#234,.T.);
#21=FACE_BOUND('',#235,.T.);
#22=FACE_BOUND('',#236,.T.);
#23=FACE_BOUND('',#237,.T.);
#24=FACE_BOUND('',#244,.T.);
#25=FACE_BOUND('',#245,.T.);
#26=FACE_BOUND('',#246,.T.);
#27=FACE_BOUND('',#247,.T.);
#28=FACE_BOUND('',#248,.T.);
#29=FACE_BOUND('',#272,.T.);
#30=PLANE('',#783);
#31=PLANE('',#786);
#32=PLANE('',#789);
#33=PLANE('',#798);
#34=PLANE('',#801);
#35=PLANE('',#804);
#36=PLANE('',#805);
#37=PLANE('',#818);
#38=PLANE('',#821);
#39=PLANE('',#824);
#40=PLANE('',#825);
#41=PLANE('',#826);
#42=PLANE('',#829);
#43=PLANE('',#844);
#44=PLANE('',#845);
#45=LINE('',#1092,#101);
#46=LINE('',#1093,#102);
#47=LINE('',#1104,#103);
#48=LINE('',#1105,#104);
#49=LINE('',#1116,#105);
#50=LINE('',#1117,#106);
#51=LINE('',#1125,#107);
#52=LINE('',#1126,#108);
#53=LINE('',#1129,#109);
#54=LINE('',#1131,#110);
#55=LINE('',#1132,#111);
#56=LINE('',#1135,#112);
#57=LINE('',#1139,#113);
#58=LINE('',#1140,#114);
#59=LINE('',#1143,#115);
#60=LINE('',#1148,#116);
#61=LINE('',#1152,#117);
#62=LINE('',#1156,#118);
#63=LINE('',#1160,#119);
#64=LINE('',#1172,#120);
#65=LINE('',#1174,#121);
#66=LINE('',#1175,#122);
#67=LINE('',#1180,#123);
#68=LINE('',#1181,#124);
#69=LINE('',#1187,#125);
#70=LINE('',#1189,#126);
#71=LINE('',#1191,#127);
#72=LINE('',#1192,#128);
#73=LINE('',#1196,#129);
#74=LINE('',#1200,#130);
#75=LINE('',#1204,#131);
#76=LINE('',#1208,#132);
#77=LINE('',#1211,#133);
#78=LINE('',#1213,#134);
#79=LINE('',#1214,#135);
#80=LINE('',#1224,#136);
#81=LINE('',#1226,#137);
#82=LINE('',#1228,#138);
#83=LINE('',#1230,#139);
#84=LINE('',#1233,#140);
#85=LINE('',#1234,#141);
#86=LINE('',#1237,#142);
#87=LINE('',#1240,#143);
#88=LINE('',#1243,#144);
#89=LINE('',#1244,#145);
#90=LINE('',#1247,#146);
#91=LINE('',#1251,#147);
#92=LINE('',#1252,#148);
#93=LINE('',#1255,#149);
#94=LINE('',#1256,#150);
#95=LINE('',#1258,#151);
#96=LINE('',#1261,#152);
#97=LINE('',#1265,#153);
#98=LINE('',#1266,#154);
#99=LINE('',#1296,#155);
#100=LINE('',#1319,#156);
#101=VECTOR('',#862,10.);
#102=VECTOR('',#863,10.);
#103=VECTOR('',#876,10.);
#104=VECTOR('',#877,10.);
#105=VECTOR('',#890,10.);
#106=VECTOR('',#891,10.);
#107=VECTOR('',#902,10.);
#108=VECTOR('',#903,10.);
#109=VECTOR('',#906,10.);
#110=VECTOR('',#907,10.);
#111=VECTOR('',#908,10.);
#112=VECTOR('',#911,10.);
#113=VECTOR('',#916,10.);
#114=VECTOR('',#917,10.);
#115=VECTOR('',#920,10.);
#116=VECTOR('',#925,10.);
#117=VECTOR('',#928,10.);
#118=VECTOR('',#931,10.);
#119=VECTOR('',#934,10.);
#120=VECTOR('',#947,10.);
#121=VECTOR('',#948,10.);
#122=VECTOR('',#949,10.);
#123=VECTOR('',#956,10.);
#124=VECTOR('',#957,10.);
#125=VECTOR('',#964,10.);
#126=VECTOR('',#965,10.);
#127=VECTOR('',#966,10.);
#128=VECTOR('',#967,10.);
#129=VECTOR('',#970,10.);
#130=VECTOR('',#973,10.);
#131=VECTOR('',#976,10.);
#132=VECTOR('',#979,10.);
#133=VECTOR('',#982,10.);
#134=VECTOR('',#983,10.);
#135=VECTOR('',#984,10.);
#136=VECTOR('',#995,1.7);
#137=VECTOR('',#998,1.7);
#138=VECTOR('',#1001,1.7);
#139=VECTOR('',#1004,1.7);
#140=VECTOR('',#1007,10.);
#141=VECTOR('',#1008,10.);
#142=VECTOR('',#1011,10.);
#143=VECTOR('',#1014,10.);
#144=VECTOR('',#1017,10.);
#145=VECTOR('',#1018,10.);
#146=VECTOR('',#1021,10.);
#147=VECTOR('',#1026,10.);
#148=VECTOR('',#1027,10.);
#149=VECTOR('',#1030,10.);
#150=VECTOR('',#1031,10.);
#151=VECTOR('',#1034,10.);
#152=VECTOR('',#1037,10.);
#153=VECTOR('',#1042,10.);
#154=VECTOR('',#1043,10.);
#155=VECTOR('',#1064,10.);
#156=VECTOR('',#1073,10.);
#157=CYLINDRICAL_SURFACE('',#764,1.);
#158=CYLINDRICAL_SURFACE('',#770,1.);
#159=CYLINDRICAL_SURFACE('',#776,1.);
#160=CYLINDRICAL_SURFACE('',#782,1.);
#161=CYLINDRICAL_SURFACE('',#784,9.99999999999999);
#162=CYLINDRICAL_SURFACE('',#787,0.999999999999996);
#163=CYLINDRICAL_SURFACE('',#799,0.999999999999994);
#164=CYLINDRICAL_SURFACE('',#802,9.99999999999999);
#165=CYLINDRICAL_SURFACE('',#814,1.7);
#166=CYLINDRICAL_SURFACE('',#815,1.7);
#167=CYLINDRICAL_SURFACE('',#816,1.7);
#168=CYLINDRICAL_SURFACE('',#817,1.7);
#169=CYLINDRICAL_SURFACE('',#819,2.5);
#170=CYLINDRICAL_SURFACE('',#822,2.5);
#171=CYLINDRICAL_SURFACE('',#827,2.5);
#172=CYLINDRICAL_SURFACE('',#830,2.);
#173=CYLINDRICAL_SURFACE('',#834,2.);
#174=CYLINDRICAL_SURFACE('',#838,2.);
#175=CYLINDRICAL_SURFACE('',#841,2.);
#176=CYLINDRICAL_SURFACE('',#843,2.5);
#177=FACE_OUTER_BOUND('',#220,.T.);
#178=FACE_OUTER_BOUND('',#221,.T.);
#179=FACE_OUTER_BOUND('',#222,.T.);
#180=FACE_OUTER_BOUND('',#223,.T.);
#181=FACE_OUTER_BOUND('',#224,.T.);
#182=FACE_OUTER_BOUND('',#225,.T.);
#183=FACE_OUTER_BOUND('',#226,.T.);
#184=FACE_OUTER_BOUND('',#227,.T.);
#185=FACE_OUTER_BOUND('',#228,.T.);
#186=FACE_OUTER_BOUND('',#229,.T.);
#187=FACE_OUTER_BOUND('',#230,.T.);
#188=FACE_OUTER_BOUND('',#231,.T.);
#189=FACE_OUTER_BOUND('',#232,.T.);
#190=FACE_OUTER_BOUND('',#238,.T.);
#191=FACE_OUTER_BOUND('',#239,.T.);
#192=FACE_OUTER_BOUND('',#240,.T.);
#193=FACE_OUTER_BOUND('',#241,.T.);
#194=FACE_OUTER_BOUND('',#242,.T.);
#195=FACE_OUTER_BOUND('',#243,.T.);
#196=FACE_OUTER_BOUND('',#249,.T.);
#197=FACE_OUTER_BOUND('',#250,.T.);
#198=FACE_OUTER_BOUND('',#251,.T.);
#199=FACE_OUTER_BOUND('',#252,.T.);
#200=FACE_OUTER_BOUND('',#253,.T.);
#201=FACE_OUTER_BOUND('',#254,.T.);
#202=FACE_OUTER_BOUND('',#255,.T.);
#203=FACE_OUTER_BOUND('',#256,.T.);
#204=FACE_OUTER_BOUND('',#257,.T.);
#205=FACE_OUTER_BOUND('',#258,.T.);
#206=FACE_OUTER_BOUND('',#259,.T.);
#207=FACE_OUTER_BOUND('',#260,.T.);
#208=FACE_OUTER_BOUND('',#261,.T.);
#209=FACE_OUTER_BOUND('',#262,.T.);
#210=FACE_OUTER_BOUND('',#263,.T.);
#211=FACE_OUTER_BOUND('',#264,.T.);
#212=FACE_OUTER_BOUND('',#265,.T.);
#213=FACE_OUTER_BOUND('',#266,.T.);
#214=FACE_OUTER_BOUND('',#267,.T.);
#215=FACE_OUTER_BOUND('',#268,.T.);
#216=FACE_OUTER_BOUND('',#269,.T.);
#217=FACE_OUTER_BOUND('',#270,.T.);
#218=FACE_OUTER_BOUND('',#271,.T.);
#219=FACE_OUTER_BOUND('',#273,.T.);
#220=EDGE_LOOP('',(#490,#491,#492,#493));
#221=EDGE_LOOP('',(#494,#495,#496,#497));
#222=EDGE_LOOP('',(#498,#499,#500,#501));
#223=EDGE_LOOP('',(#502,#503,#504,#505));
#224=EDGE_LOOP('',(#506,#507,#508,#509));
#225=EDGE_LOOP('',(#510,#511,#512,#513));
#226=EDGE_LOOP('',(#514,#515,#516,#517));
#227=EDGE_LOOP('',(#518,#519,#520,#521));
#228=EDGE_LOOP('',(#522,#523,#524,#525));
#229=EDGE_LOOP('',(#526,#527,#528,#529));
#230=EDGE_LOOP('',(#530,#531,#532,#533));
#231=EDGE_LOOP('',(#534,#535,#536,#537));
#232=EDGE_LOOP('',(#538,#539,#540,#541,#542,#543,#544,#545));
#233=EDGE_LOOP('',(#546));
#234=EDGE_LOOP('',(#547));
#235=EDGE_LOOP('',(#548));
#236=EDGE_LOOP('',(#549));
#237=EDGE_LOOP('',(#550,#551,#552,#553,#554,#555,#556,#557));
#238=EDGE_LOOP('',(#558,#559,#560,#561));
#239=EDGE_LOOP('',(#562,#563,#564,#565));
#240=EDGE_LOOP('',(#566,#567,#568,#569));
#241=EDGE_LOOP('',(#570,#571,#572,#573));
#242=EDGE_LOOP('',(#574,#575,#576,#577));
#243=EDGE_LOOP('',(#578,#579,#580,#581,#582,#583,#584,#585));
#244=EDGE_LOOP('',(#586,#587,#588,#589));
#245=EDGE_LOOP('',(#590));
#246=EDGE_LOOP('',(#591));
#247=EDGE_LOOP('',(#592));
#248=EDGE_LOOP('',(#593));
#249=EDGE_LOOP('',(#594,#595,#596,#597));
#250=EDGE_LOOP('',(#598,#599,#600,#601));
#251=EDGE_LOOP('',(#602,#603,#604,#605));
#252=EDGE_LOOP('',(#606,#607,#608,#609));
#253=EDGE_LOOP('',(#610,#611,#612,#613));
#254=EDGE_LOOP('',(#614,#615,#616,#617));
#255=EDGE_LOOP('',(#618,#619,#620,#621));
#256=EDGE_LOOP('',(#622,#623,#624,#625));
#257=EDGE_LOOP('',(#626,#627,#628,#629));
#258=EDGE_LOOP('',(#630,#631,#632,#633));
#259=EDGE_LOOP('',(#634,#635,#636,#637));
#260=EDGE_LOOP('',(#638,#639,#640,#641));
#261=EDGE_LOOP('',(#642,#643,#644,#645));
#262=EDGE_LOOP('',(#646,#647,#648,#649));
#263=EDGE_LOOP('',(#650,#651,#652,#653));
#264=EDGE_LOOP('',(#654,#655,#656,#657));
#265=EDGE_LOOP('',(#658,#659,#660,#661));
#266=EDGE_LOOP('',(#662,#663,#664,#665));
#267=EDGE_LOOP('',(#666,#667,#668,#669));
#268=EDGE_LOOP('',(#670,#671,#672,#673));
#269=EDGE_LOOP('',(#674,#675,#676,#677));
#270=EDGE_LOOP('',(#678,#679,#680,#681));
#271=EDGE_LOOP('',(#682,#683,#684,#685));
#272=EDGE_LOOP('',(#686,#687,#688,#689,#690,#691,#692,#693));
#273=EDGE_LOOP('',(#694,#695,#696,#697));
#274=CIRCLE('',#760,1.);
#275=CIRCLE('',#761,0.999999999999996);
#276=CIRCLE('',#762,1.);
#277=CIRCLE('',#763,2.);
#278=CIRCLE('',#765,0.999999999999999);
#279=CIRCLE('',#767,0.999999999999996);
#280=CIRCLE('',#768,11.);
#281=CIRCLE('',#769,9.99999999999999);
#282=CIRCLE('',#771,0.999999999999996);
#283=CIRCLE('',#773,1.);
#284=CIRCLE('',#774,1.99999999999999);
#285=CIRCLE('',#775,0.999999999999994);
#286=CIRCLE('',#777,1.);
#287=CIRCLE('',#779,1.00000000000001);
#288=CIRCLE('',#780,11.);
#289=CIRCLE('',#781,9.99999999999999);
#290=CIRCLE('',#785,9.99999999999999);
#291=CIRCLE('',#788,0.999999999999996);
#292=CIRCLE('',#790,0.5);
#293=CIRCLE('',#791,0.5);
#294=CIRCLE('',#792,0.5);
#295=CIRCLE('',#793,0.5);
#296=CIRCLE('',#794,1.7);
#297=CIRCLE('',#795,1.7);
#298=CIRCLE('',#796,1.7);
#299=CIRCLE('',#797,1.7);
#300=CIRCLE('',#800,0.999999999999994);
#301=CIRCLE('',#803,9.99999999999999);
#302=CIRCLE('',#806,2.5);
#303=CIRCLE('',#807,2.5);
#304=CIRCLE('',#808,2.5);
#305=CIRCLE('',#809,2.5);
#306=CIRCLE('',#810,1.7);
#307=CIRCLE('',#811,1.7);
#308=CIRCLE('',#812,1.7);
#309=CIRCLE('',#813,1.7);
#310=CIRCLE('',#820,2.5);
#311=CIRCLE('',#823,2.5);
#312=CIRCLE('',#828,2.5);
#313=CIRCLE('',#831,2.);
#314=CIRCLE('',#832,1.99999999999999);
#315=CIRCLE('',#833,2.);
#316=CIRCLE('',#835,2.);
#317=CIRCLE('',#836,2.00000000000003);
#318=CIRCLE('',#837,2.5);
#319=CIRCLE('',#839,1.99999999999999);
#320=CIRCLE('',#840,2.);
#321=CIRCLE('',#842,2.);
#322=VERTEX_POINT('',#1080);
#323=VERTEX_POINT('',#1081);
#324=VERTEX_POINT('',#1083);
#325=VERTEX_POINT('',#1085);
#326=VERTEX_POINT('',#1089);
#327=VERTEX_POINT('',#1090);
#328=VERTEX_POINT('',#1095);
#329=VERTEX_POINT('',#1096);
#330=VERTEX_POINT('',#1101);
#331=VERTEX_POINT('',#1102);
#332=VERTEX_POINT('',#1107);
#333=VERTEX_POINT('',#1108);
#334=VERTEX_POINT('',#1113);
#335=VERTEX_POINT('',#1114);
#336=VERTEX_POINT('',#1119);
#337=VERTEX_POINT('',#1120);
#338=VERTEX_POINT('',#1128);
#339=VERTEX_POINT('',#1130);
#340=VERTEX_POINT('',#1134);
#341=VERTEX_POINT('',#1138);
#342=VERTEX_POINT('',#1142);
#343=VERTEX_POINT('',#1146);
#344=VERTEX_POINT('',#1147);
#345=VERTEX_POINT('',#1149);
#346=VERTEX_POINT('',#1151);
#347=VERTEX_POINT('',#1153);
#348=VERTEX_POINT('',#1155);
#349=VERTEX_POINT('',#1157);
#350=VERTEX_POINT('',#1159);
#351=VERTEX_POINT('',#1162);
#352=VERTEX_POINT('',#1164);
#353=VERTEX_POINT('',#1166);
#354=VERTEX_POINT('',#1168);
#355=VERTEX_POINT('',#1171);
#356=VERTEX_POINT('',#1173);
#357=VERTEX_POINT('',#1179);
#358=VERTEX_POINT('',#1185);
#359=VERTEX_POINT('',#1186);
#360=VERTEX_POINT('',#1188);
#361=VERTEX_POINT('',#1190);
#362=VERTEX_POINT('',#1194);
#363=VERTEX_POINT('',#1195);
#364=VERTEX_POINT('',#1197);
#365=VERTEX_POINT('',#1199);
#366=VERTEX_POINT('',#1201);
#367=VERTEX_POINT('',#1203);
#368=VERTEX_POINT('',#1205);
#369=VERTEX_POINT('',#1207);
#370=VERTEX_POINT('',#1210);
#371=VERTEX_POINT('',#1212);
#372=VERTEX_POINT('',#1215);
#373=VERTEX_POINT('',#1217);
#374=VERTEX_POINT('',#1219);
#375=VERTEX_POINT('',#1221);
#376=VERTEX_POINT('',#1232);
#377=VERTEX_POINT('',#1236);
#378=VERTEX_POINT('',#1238);
#379=VERTEX_POINT('',#1242);
#380=VERTEX_POINT('',#1246);
#381=VERTEX_POINT('',#1250);
#382=VERTEX_POINT('',#1254);
#383=VERTEX_POINT('',#1260);
#384=VERTEX_POINT('',#1264);
#385=VERTEX_POINT('',#1291);
#386=EDGE_CURVE('',#322,#323,#274,.T.);
#387=EDGE_CURVE('',#323,#324,#275,.T.);
#388=EDGE_CURVE('',#324,#325,#276,.T.);
#389=EDGE_CURVE('',#325,#322,#277,.T.);
#390=EDGE_CURVE('',#326,#327,#278,.T.);
#391=EDGE_CURVE('',#327,#325,#45,.T.);
#392=EDGE_CURVE('',#324,#326,#46,.T.);
#393=EDGE_CURVE('',#328,#329,#279,.T.);
#394=EDGE_CURVE('',#329,#327,#280,.T.);
#395=EDGE_CURVE('',#326,#328,#281,.T.);
#396=EDGE_CURVE('',#330,#331,#282,.T.);
#397=EDGE_CURVE('',#331,#329,#47,.T.);
#398=EDGE_CURVE('',#328,#330,#48,.T.);
#399=EDGE_CURVE('',#332,#333,#283,.T.);
#400=EDGE_CURVE('',#333,#331,#284,.T.);
#401=EDGE_CURVE('',#330,#332,#285,.T.);
#402=EDGE_CURVE('',#334,#335,#286,.T.);
#403=EDGE_CURVE('',#335,#333,#49,.T.);
#404=EDGE_CURVE('',#332,#334,#50,.T.);
#405=EDGE_CURVE('',#336,#337,#287,.T.);
#406=EDGE_CURVE('',#337,#335,#288,.T.);
#407=EDGE_CURVE('',#334,#336,#289,.T.);
#408=EDGE_CURVE('',#322,#337,#51,.T.);
#409=EDGE_CURVE('',#336,#323,#52,.T.);
#410=EDGE_CURVE('',#328,#338,#53,.T.);
#411=EDGE_CURVE('',#339,#338,#54,.T.);
#412=EDGE_CURVE('',#330,#339,#55,.T.);
#413=EDGE_CURVE('',#326,#340,#56,.T.);
#414=EDGE_CURVE('',#338,#340,#290,.T.);
#415=EDGE_CURVE('',#324,#341,#57,.T.);
#416=EDGE_CURVE('',#340,#341,#58,.T.);
#417=EDGE_CURVE('',#323,#342,#59,.T.);
#418=EDGE_CURVE('',#341,#342,#291,.T.);
#419=EDGE_CURVE('',#343,#344,#60,.T.);
#420=EDGE_CURVE('',#345,#343,#292,.T.);
#421=EDGE_CURVE('',#346,#345,#61,.T.);
#422=EDGE_CURVE('',#347,#346,#293,.T.);
#423=EDGE_CURVE('',#348,#347,#62,.T.);
#424=EDGE_CURVE('',#349,#348,#294,.T.);
#425=EDGE_CURVE('',#350,#349,#63,.T.);
#426=EDGE_CURVE('',#344,#350,#295,.T.);
#427=EDGE_CURVE('',#351,#351,#296,.T.);
#428=EDGE_CURVE('',#352,#352,#297,.T.);
#429=EDGE_CURVE('',#353,#353,#298,.T.);
#430=EDGE_CURVE('',#354,#354,#299,.T.);
#431=EDGE_CURVE('',#332,#355,#64,.T.);
#432=EDGE_CURVE('',#356,#355,#65,.T.);
#433=EDGE_CURVE('',#334,#356,#66,.T.);
#434=EDGE_CURVE('',#355,#339,#300,.T.);
#435=EDGE_CURVE('',#336,#357,#67,.T.);
#436=EDGE_CURVE('',#342,#357,#68,.T.);
#437=EDGE_CURVE('',#357,#356,#301,.T.);
#438=EDGE_CURVE('',#358,#359,#69,.T.);
#439=EDGE_CURVE('',#360,#358,#70,.T.);
#440=EDGE_CURVE('',#361,#360,#71,.T.);
#441=EDGE_CURVE('',#359,#361,#72,.T.);
#442=EDGE_CURVE('',#362,#363,#73,.T.);
#443=EDGE_CURVE('',#364,#362,#302,.T.);
#444=EDGE_CURVE('',#365,#364,#74,.T.);
#445=EDGE_CURVE('',#366,#365,#303,.T.);
#446=EDGE_CURVE('',#367,#366,#75,.T.);
#447=EDGE_CURVE('',#368,#367,#304,.T.);
#448=EDGE_CURVE('',#369,#368,#76,.T.);
#449=EDGE_CURVE('',#363,#369,#305,.T.);
#450=EDGE_CURVE('',#370,#358,#77,.T.);
#451=EDGE_CURVE('',#359,#371,#78,.T.);
#452=EDGE_CURVE('',#370,#371,#79,.T.);
#453=EDGE_CURVE('',#372,#372,#306,.T.);
#454=EDGE_CURVE('',#373,#373,#307,.T.);
#455=EDGE_CURVE('',#374,#374,#308,.T.);
#456=EDGE_CURVE('',#375,#375,#309,.T.);
#457=EDGE_CURVE('',#375,#354,#80,.T.);
#458=EDGE_CURVE('',#374,#353,#81,.T.);
#459=EDGE_CURVE('',#373,#352,#82,.T.);
#460=EDGE_CURVE('',#372,#351,#83,.T.);
#461=EDGE_CURVE('',#361,#376,#84,.T.);
#462=EDGE_CURVE('',#376,#371,#85,.T.);
#463=EDGE_CURVE('',#367,#377,#86,.T.);
#464=EDGE_CURVE('',#378,#377,#310,.T.);
#465=EDGE_CURVE('',#368,#378,#87,.T.);
#466=EDGE_CURVE('',#366,#379,#88,.T.);
#467=EDGE_CURVE('',#377,#379,#89,.T.);
#468=EDGE_CURVE('',#365,#380,#90,.T.);
#469=EDGE_CURVE('',#379,#380,#311,.T.);
#470=EDGE_CURVE('',#364,#381,#91,.T.);
#471=EDGE_CURVE('',#380,#381,#92,.T.);
#472=EDGE_CURVE('',#382,#370,#93,.T.);
#473=EDGE_CURVE('',#382,#360,#94,.T.);
#474=EDGE_CURVE('',#376,#382,#95,.T.);
#475=EDGE_CURVE('',#362,#383,#96,.T.);
#476=EDGE_CURVE('',#381,#383,#312,.T.);
#477=EDGE_CURVE('',#363,#384,#97,.T.);
#478=EDGE_CURVE('',#383,#384,#98,.T.);
#479=EDGE_CURVE('',#344,#380,#313,.T.);
#480=EDGE_CURVE('',#381,#343,#314,.T.);
#481=EDGE_CURVE('',#383,#345,#315,.T.);
#482=EDGE_CURVE('',#384,#346,#316,.T.);
#483=EDGE_CURVE('',#385,#347,#317,.T.);
#484=EDGE_CURVE('',#384,#385,#318,.T.);
#485=EDGE_CURVE('',#378,#348,#319,.T.);
#486=EDGE_CURVE('',#385,#378,#99,.T.);
#487=EDGE_CURVE('',#377,#349,#320,.T.);
#488=EDGE_CURVE('',#379,#350,#321,.T.);
#489=EDGE_CURVE('',#369,#385,#100,.T.);
#490=ORIENTED_EDGE('',*,*,#386,.T.);
#491=ORIENTED_EDGE('',*,*,#387,.T.);
#492=ORIENTED_EDGE('',*,*,#388,.T.);
#493=ORIENTED_EDGE('',*,*,#389,.T.);
#494=ORIENTED_EDGE('',*,*,#390,.T.);
#495=ORIENTED_EDGE('',*,*,#391,.T.);
#496=ORIENTED_EDGE('',*,*,#388,.F.);
#497=ORIENTED_EDGE('',*,*,#392,.T.);
#498=ORIENTED_EDGE('',*,*,#393,.T.);
#499=ORIENTED_EDGE('',*,*,#394,.T.);
#500=ORIENTED_EDGE('',*,*,#390,.F.);
#501=ORIENTED_EDGE('',*,*,#395,.T.);
#502=ORIENTED_EDGE('',*,*,#396,.T.);
#503=ORIENTED_EDGE('',*,*,#397,.T.);
#504=ORIENTED_EDGE('',*,*,#393,.F.);
#505=ORIENTED_EDGE('',*,*,#398,.T.);
#506=ORIENTED_EDGE('',*,*,#399,.T.);
#507=ORIENTED_EDGE('',*,*,#400,.T.);
#508=ORIENTED_EDGE('',*,*,#396,.F.);
#509=ORIENTED_EDGE('',*,*,#401,.T.);
#510=ORIENTED_EDGE('',*,*,#402,.T.);
#511=ORIENTED_EDGE('',*,*,#403,.T.);
#512=ORIENTED_EDGE('',*,*,#399,.F.);
#513=ORIENTED_EDGE('',*,*,#404,.T.);
#514=ORIENTED_EDGE('',*,*,#405,.T.);
#515=ORIENTED_EDGE('',*,*,#406,.T.);
#516=ORIENTED_EDGE('',*,*,#402,.F.);
#517=ORIENTED_EDGE('',*,*,#407,.T.);
#518=ORIENTED_EDGE('',*,*,#386,.F.);
#519=ORIENTED_EDGE('',*,*,#408,.T.);
#520=ORIENTED_EDGE('',*,*,#405,.F.);
#521=ORIENTED_EDGE('',*,*,#409,.T.);
#522=ORIENTED_EDGE('',*,*,#398,.F.);
#523=ORIENTED_EDGE('',*,*,#410,.T.);
#524=ORIENTED_EDGE('',*,*,#411,.F.);
#525=ORIENTED_EDGE('',*,*,#412,.F.);
#526=ORIENTED_EDGE('',*,*,#395,.F.);
#527=ORIENTED_EDGE('',*,*,#413,.T.);
#528=ORIENTED_EDGE('',*,*,#414,.F.);
#529=ORIENTED_EDGE('',*,*,#410,.F.);
#530=ORIENTED_EDGE('',*,*,#392,.F.);
#531=ORIENTED_EDGE('',*,*,#415,.T.);
#532=ORIENTED_EDGE('',*,*,#416,.F.);
#533=ORIENTED_EDGE('',*,*,#413,.F.);
#534=ORIENTED_EDGE('',*,*,#387,.F.);
#535=ORIENTED_EDGE('',*,*,#417,.T.);
#536=ORIENTED_EDGE('',*,*,#418,.F.);
#537=ORIENTED_EDGE('',*,*,#415,.F.);
#538=ORIENTED_EDGE('',*,*,#419,.F.);
#539=ORIENTED_EDGE('',*,*,#420,.F.);
#540=ORIENTED_EDGE('',*,*,#421,.F.);
#541=ORIENTED_EDGE('',*,*,#422,.F.);
#542=ORIENTED_EDGE('',*,*,#423,.F.);
#543=ORIENTED_EDGE('',*,*,#424,.F.);
#544=ORIENTED_EDGE('',*,*,#425,.F.);
#545=ORIENTED_EDGE('',*,*,#426,.F.);
#546=ORIENTED_EDGE('',*,*,#427,.T.);
#547=ORIENTED_EDGE('',*,*,#428,.T.);
#548=ORIENTED_EDGE('',*,*,#429,.T.);
#549=ORIENTED_EDGE('',*,*,#430,.T.);
#550=ORIENTED_EDGE('',*,*,#389,.F.);
#551=ORIENTED_EDGE('',*,*,#391,.F.);
#552=ORIENTED_EDGE('',*,*,#394,.F.);
#553=ORIENTED_EDGE('',*,*,#397,.F.);
#554=ORIENTED_EDGE('',*,*,#400,.F.);
#555=ORIENTED_EDGE('',*,*,#403,.F.);
#556=ORIENTED_EDGE('',*,*,#406,.F.);
#557=ORIENTED_EDGE('',*,*,#408,.F.);
#558=ORIENTED_EDGE('',*,*,#404,.F.);
#559=ORIENTED_EDGE('',*,*,#431,.T.);
#560=ORIENTED_EDGE('',*,*,#432,.F.);
#561=ORIENTED_EDGE('',*,*,#433,.F.);
#562=ORIENTED_EDGE('',*,*,#401,.F.);
#563=ORIENTED_EDGE('',*,*,#412,.T.);
#564=ORIENTED_EDGE('',*,*,#434,.F.);
#565=ORIENTED_EDGE('',*,*,#431,.F.);
#566=ORIENTED_EDGE('',*,*,#409,.F.);
#567=ORIENTED_EDGE('',*,*,#435,.T.);
#568=ORIENTED_EDGE('',*,*,#436,.F.);
#569=ORIENTED_EDGE('',*,*,#417,.F.);
#570=ORIENTED_EDGE('',*,*,#407,.F.);
#571=ORIENTED_EDGE('',*,*,#433,.T.);
#572=ORIENTED_EDGE('',*,*,#437,.F.);
#573=ORIENTED_EDGE('',*,*,#435,.F.);
#574=ORIENTED_EDGE('',*,*,#438,.F.);
#575=ORIENTED_EDGE('',*,*,#439,.F.);
#576=ORIENTED_EDGE('',*,*,#440,.F.);
#577=ORIENTED_EDGE('',*,*,#441,.F.);
#578=ORIENTED_EDGE('',*,*,#442,.F.);
#579=ORIENTED_EDGE('',*,*,#443,.F.);
#580=ORIENTED_EDGE('',*,*,#444,.F.);
#581=ORIENTED_EDGE('',*,*,#445,.F.);
#582=ORIENTED_EDGE('',*,*,#446,.F.);
#583=ORIENTED_EDGE('',*,*,#447,.F.);
#584=ORIENTED_EDGE('',*,*,#448,.F.);
#585=ORIENTED_EDGE('',*,*,#449,.F.);
#586=ORIENTED_EDGE('',*,*,#450,.T.);
#587=ORIENTED_EDGE('',*,*,#438,.T.);
#588=ORIENTED_EDGE('',*,*,#451,.T.);
#589=ORIENTED_EDGE('',*,*,#452,.F.);
#590=ORIENTED_EDGE('',*,*,#453,.T.);
#591=ORIENTED_EDGE('',*,*,#454,.T.);
#592=ORIENTED_EDGE('',*,*,#455,.T.);
#593=ORIENTED_EDGE('',*,*,#456,.T.);
#594=ORIENTED_EDGE('',*,*,#456,.F.);
#595=ORIENTED_EDGE('',*,*,#457,.T.);
#596=ORIENTED_EDGE('',*,*,#430,.F.);
#597=ORIENTED_EDGE('',*,*,#457,.F.);
#598=ORIENTED_EDGE('',*,*,#455,.F.);
#599=ORIENTED_EDGE('',*,*,#458,.T.);
#600=ORIENTED_EDGE('',*,*,#429,.F.);
#601=ORIENTED_EDGE('',*,*,#458,.F.);
#602=ORIENTED_EDGE('',*,*,#454,.F.);
#603=ORIENTED_EDGE('',*,*,#459,.T.);
#604=ORIENTED_EDGE('',*,*,#428,.F.);
#605=ORIENTED_EDGE('',*,*,#459,.F.);
#606=ORIENTED_EDGE('',*,*,#453,.F.);
#607=ORIENTED_EDGE('',*,*,#460,.T.);
#608=ORIENTED_EDGE('',*,*,#427,.F.);
#609=ORIENTED_EDGE('',*,*,#460,.F.);
#610=ORIENTED_EDGE('',*,*,#451,.F.);
#611=ORIENTED_EDGE('',*,*,#441,.T.);
#612=ORIENTED_EDGE('',*,*,#461,.T.);
#613=ORIENTED_EDGE('',*,*,#462,.T.);
#614=ORIENTED_EDGE('',*,*,#447,.T.);
#615=ORIENTED_EDGE('',*,*,#463,.T.);
#616=ORIENTED_EDGE('',*,*,#464,.F.);
#617=ORIENTED_EDGE('',*,*,#465,.F.);
#618=ORIENTED_EDGE('',*,*,#446,.T.);
#619=ORIENTED_EDGE('',*,*,#466,.T.);
#620=ORIENTED_EDGE('',*,*,#467,.F.);
#621=ORIENTED_EDGE('',*,*,#463,.F.);
#622=ORIENTED_EDGE('',*,*,#445,.T.);
#623=ORIENTED_EDGE('',*,*,#468,.T.);
#624=ORIENTED_EDGE('',*,*,#469,.F.);
#625=ORIENTED_EDGE('',*,*,#466,.F.);
#626=ORIENTED_EDGE('',*,*,#444,.T.);
#627=ORIENTED_EDGE('',*,*,#470,.T.);
#628=ORIENTED_EDGE('',*,*,#471,.F.);
#629=ORIENTED_EDGE('',*,*,#468,.F.);
#630=ORIENTED_EDGE('',*,*,#450,.F.);
#631=ORIENTED_EDGE('',*,*,#472,.F.);
#632=ORIENTED_EDGE('',*,*,#473,.T.);
#633=ORIENTED_EDGE('',*,*,#439,.T.);
#634=ORIENTED_EDGE('',*,*,#452,.T.);
#635=ORIENTED_EDGE('',*,*,#462,.F.);
#636=ORIENTED_EDGE('',*,*,#474,.T.);
#637=ORIENTED_EDGE('',*,*,#472,.T.);
#638=ORIENTED_EDGE('',*,*,#443,.T.);
#639=ORIENTED_EDGE('',*,*,#475,.T.);
#640=ORIENTED_EDGE('',*,*,#476,.F.);
#641=ORIENTED_EDGE('',*,*,#470,.F.);
#642=ORIENTED_EDGE('',*,*,#442,.T.);
#643=ORIENTED_EDGE('',*,*,#477,.T.);
#644=ORIENTED_EDGE('',*,*,#478,.F.);
#645=ORIENTED_EDGE('',*,*,#475,.F.);
#646=ORIENTED_EDGE('',*,*,#479,.T.);
#647=ORIENTED_EDGE('',*,*,#471,.T.);
#648=ORIENTED_EDGE('',*,*,#480,.T.);
#649=ORIENTED_EDGE('',*,*,#419,.T.);
#650=ORIENTED_EDGE('',*,*,#481,.T.);
#651=ORIENTED_EDGE('',*,*,#420,.T.);
#652=ORIENTED_EDGE('',*,*,#480,.F.);
#653=ORIENTED_EDGE('',*,*,#476,.T.);
#654=ORIENTED_EDGE('',*,*,#482,.T.);
#655=ORIENTED_EDGE('',*,*,#421,.T.);
#656=ORIENTED_EDGE('',*,*,#481,.F.);
#657=ORIENTED_EDGE('',*,*,#478,.T.);
#658=ORIENTED_EDGE('',*,*,#483,.T.);
#659=ORIENTED_EDGE('',*,*,#422,.T.);
#660=ORIENTED_EDGE('',*,*,#482,.F.);
#661=ORIENTED_EDGE('',*,*,#484,.T.);
#662=ORIENTED_EDGE('',*,*,#485,.T.);
#663=ORIENTED_EDGE('',*,*,#423,.T.);
#664=ORIENTED_EDGE('',*,*,#483,.F.);
#665=ORIENTED_EDGE('',*,*,#486,.T.);
#666=ORIENTED_EDGE('',*,*,#487,.T.);
#667=ORIENTED_EDGE('',*,*,#424,.T.);
#668=ORIENTED_EDGE('',*,*,#485,.F.);
#669=ORIENTED_EDGE('',*,*,#464,.T.);
#670=ORIENTED_EDGE('',*,*,#488,.T.);
#671=ORIENTED_EDGE('',*,*,#425,.T.);
#672=ORIENTED_EDGE('',*,*,#487,.F.);
#673=ORIENTED_EDGE('',*,*,#467,.T.);
#674=ORIENTED_EDGE('',*,*,#479,.F.);
#675=ORIENTED_EDGE('',*,*,#426,.T.);
#676=ORIENTED_EDGE('',*,*,#488,.F.);
#677=ORIENTED_EDGE('',*,*,#469,.T.);
#678=ORIENTED_EDGE('',*,*,#449,.T.);
#679=ORIENTED_EDGE('',*,*,#489,.T.);
#680=ORIENTED_EDGE('',*,*,#484,.F.);
#681=ORIENTED_EDGE('',*,*,#477,.F.);
#682=ORIENTED_EDGE('',*,*,#473,.F.);
#683=ORIENTED_EDGE('',*,*,#474,.F.);
#684=ORIENTED_EDGE('',*,*,#461,.F.);
#685=ORIENTED_EDGE('',*,*,#440,.T.);
#686=ORIENTED_EDGE('',*,*,#416,.T.);
#687=ORIENTED_EDGE('',*,*,#418,.T.);
#688=ORIENTED_EDGE('',*,*,#436,.T.);
#689=ORIENTED_EDGE('',*,*,#437,.T.);
#690=ORIENTED_EDGE('',*,*,#432,.T.);
#691=ORIENTED_EDGE('',*,*,#434,.T.);
#692=ORIENTED_EDGE('',*,*,#411,.T.);
#693=ORIENTED_EDGE('',*,*,#414,.T.);
#694=ORIENTED_EDGE('',*,*,#448,.T.);
#695=ORIENTED_EDGE('',*,*,#465,.T.);
#696=ORIENTED_EDGE('',*,*,#486,.F.);
#697=ORIENTED_EDGE('',*,*,#489,.F.);
#698=TOROIDAL_SURFACE('',#759,2.,1.);
#699=TOROIDAL_SURFACE('',#766,11.,1.);
#700=TOROIDAL_SURFACE('',#772,1.99999999999999,1.);
#701=TOROIDAL_SURFACE('',#778,11.,1.);
#702=ADVANCED_FACE('',(#177),#698,.T.);
#703=ADVANCED_FACE('',(#178),#157,.T.);
#704=ADVANCED_FACE('',(#179),#699,.T.);
#705=ADVANCED_FACE('',(#180),#158,.T.);
#706=ADVANCED_FACE('',(#181),#700,.T.);
#707=ADVANCED_FACE('',(#182),#159,.T.);
#708=ADVANCED_FACE('',(#183),#701,.T.);
#709=ADVANCED_FACE('',(#184),#160,.T.);
#710=ADVANCED_FACE('',(#185),#30,.F.);
#711=ADVANCED_FACE('',(#186),#161,.F.);
#712=ADVANCED_FACE('',(#187),#31,.F.);
#713=ADVANCED_FACE('',(#188),#162,.F.);
#714=ADVANCED_FACE('',(#189,#19,#20,#21,#22,#23),#32,.F.);
#715=ADVANCED_FACE('',(#190),#33,.F.);
#716=ADVANCED_FACE('',(#191),#163,.F.);
#717=ADVANCED_FACE('',(#192),#34,.F.);
#718=ADVANCED_FACE('',(#193),#164,.F.);
#719=ADVANCED_FACE('',(#194),#35,.F.);
#720=ADVANCED_FACE('',(#195,#24,#25,#26,#27,#28),#36,.T.);
#721=ADVANCED_FACE('',(#196),#165,.F.);
#722=ADVANCED_FACE('',(#197),#166,.F.);
#723=ADVANCED_FACE('',(#198),#167,.F.);
#724=ADVANCED_FACE('',(#199),#168,.F.);
#725=ADVANCED_FACE('',(#200),#37,.T.);
#726=ADVANCED_FACE('',(#201),#169,.T.);
#727=ADVANCED_FACE('',(#202),#38,.T.);
#728=ADVANCED_FACE('',(#203),#170,.T.);
#729=ADVANCED_FACE('',(#204),#39,.T.);
#730=ADVANCED_FACE('',(#205),#40,.T.);
#731=ADVANCED_FACE('',(#206),#41,.T.);
#732=ADVANCED_FACE('',(#207),#171,.T.);
#733=ADVANCED_FACE('',(#208),#42,.T.);
#734=ADVANCED_FACE('',(#209),#172,.T.);
#735=ADVANCED_FACE('',(#210),#15,.F.);
#736=ADVANCED_FACE('',(#211),#173,.T.);
#737=ADVANCED_FACE('',(#212),#16,.F.);
#738=ADVANCED_FACE('',(#213),#174,.T.);
#739=ADVANCED_FACE('',(#214),#17,.F.);
#740=ADVANCED_FACE('',(#215),#175,.T.);
#741=ADVANCED_FACE('',(#216),#18,.F.);
#742=ADVANCED_FACE('',(#217),#176,.T.);
#743=ADVANCED_FACE('',(#218,#29),#43,.T.);
#744=ADVANCED_FACE('',(#219),#44,.T.);
#745=CLOSED_SHELL('',(#702,#703,#704,#705,#706,#707,#708,#709,#710,#711,
#712,#713,#714,#715,#716,#717,#718,#719,#720,#721,#722,#723,#724,#725,#726,
#727,#728,#729,#730,#731,#732,#733,#734,#735,#736,#737,#738,#739,#740,#741,
#742,#743,#744));
#746=DERIVED_UNIT_ELEMENT(#748,1.);
#747=DERIVED_UNIT_ELEMENT(#1327,-3.);
#748=(
MASS_UNIT()
NAMED_UNIT(*)
SI_UNIT(.KILO.,.GRAM.)
);
#749=DERIVED_UNIT((#746,#747));
#750=MEASURE_REPRESENTATION_ITEM('density measure',
POSITIVE_RATIO_MEASURE(1060.),#749);
#751=PROPERTY_DEFINITION_REPRESENTATION(#756,#753);
#752=PROPERTY_DEFINITION_REPRESENTATION(#757,#754);
#753=REPRESENTATION('material name',(#755),#1324);
#754=REPRESENTATION('density',(#750),#1324);
#755=DESCRIPTIVE_REPRESENTATION_ITEM('ABS Plastic','ABS Plastic');
#756=PROPERTY_DEFINITION('material property','material name',#1334);
#757=PROPERTY_DEFINITION('material property','density of part',#1334);
#758=AXIS2_PLACEMENT_3D('',#1078,#846,#847);
#759=AXIS2_PLACEMENT_3D('',#1079,#848,#849);
#760=AXIS2_PLACEMENT_3D('',#1082,#850,#851);
#761=AXIS2_PLACEMENT_3D('',#1084,#852,#853);
#762=AXIS2_PLACEMENT_3D('',#1086,#854,#855);
#763=AXIS2_PLACEMENT_3D('',#1087,#856,#857);
#764=AXIS2_PLACEMENT_3D('',#1088,#858,#859);
#765=AXIS2_PLACEMENT_3D('',#1091,#860,#861);
#766=AXIS2_PLACEMENT_3D('',#1094,#864,#865);
#767=AXIS2_PLACEMENT_3D('',#1097,#866,#867);
#768=AXIS2_PLACEMENT_3D('',#1098,#868,#869);
#769=AXIS2_PLACEMENT_3D('',#1099,#870,#871);
#770=AXIS2_PLACEMENT_3D('',#1100,#872,#873);
#771=AXIS2_PLACEMENT_3D('',#1103,#874,#875);
#772=AXIS2_PLACEMENT_3D('',#1106,#878,#879);
#773=AXIS2_PLACEMENT_3D('',#1109,#880,#881);
#774=AXIS2_PLACEMENT_3D('',#1110,#882,#883);
#775=AXIS2_PLACEMENT_3D('',#1111,#884,#885);
#776=AXIS2_PLACEMENT_3D('',#1112,#886,#887);
#777=AXIS2_PLACEMENT_3D('',#1115,#888,#889);
#778=AXIS2_PLACEMENT_3D('',#1118,#892,#893);
#779=AXIS2_PLACEMENT_3D('',#1121,#894,#895);
#780=AXIS2_PLACEMENT_3D('',#1122,#896,#897);
#781=AXIS2_PLACEMENT_3D('',#1123,#898,#899);
#782=AXIS2_PLACEMENT_3D('',#1124,#900,#901);
#783=AXIS2_PLACEMENT_3D('',#1127,#904,#905);
#784=AXIS2_PLACEMENT_3D('',#1133,#909,#910);
#785=AXIS2_PLACEMENT_3D('',#1136,#912,#913);
#786=AXIS2_PLACEMENT_3D('',#1137,#914,#915);
#787=AXIS2_PLACEMENT_3D('',#1141,#918,#919);
#788=AXIS2_PLACEMENT_3D('',#1144,#921,#922);
#789=AXIS2_PLACEMENT_3D('',#1145,#923,#924);
#790=AXIS2_PLACEMENT_3D('',#1150,#926,#927);
#791=AXIS2_PLACEMENT_3D('',#1154,#929,#930);
#792=AXIS2_PLACEMENT_3D('',#1158,#932,#933);
#793=AXIS2_PLACEMENT_3D('',#1161,#935,#936);
#794=AXIS2_PLACEMENT_3D('',#1163,#937,#938);
#795=AXIS2_PLACEMENT_3D('',#1165,#939,#940);
#796=AXIS2_PLACEMENT_3D('',#1167,#941,#942);
#797=AXIS2_PLACEMENT_3D('',#1169,#943,#944);
#798=AXIS2_PLACEMENT_3D('',#1170,#945,#946);
#799=AXIS2_PLACEMENT_3D('',#1176,#950,#951);
#800=AXIS2_PLACEMENT_3D('',#1177,#952,#953);
#801=AXIS2_PLACEMENT_3D('',#1178,#954,#955);
#802=AXIS2_PLACEMENT_3D('',#1182,#958,#959);
#803=AXIS2_PLACEMENT_3D('',#1183,#960,#961);
#804=AXIS2_PLACEMENT_3D('',#1184,#962,#963);
#805=AXIS2_PLACEMENT_3D('',#1193,#968,#969);
#806=AXIS2_PLACEMENT_3D('',#1198,#971,#972);
#807=AXIS2_PLACEMENT_3D('',#1202,#974,#975);
#808=AXIS2_PLACEMENT_3D('',#1206,#977,#978);
#809=AXIS2_PLACEMENT_3D('',#1209,#980,#981);
#810=AXIS2_PLACEMENT_3D('',#1216,#985,#986);
#811=AXIS2_PLACEMENT_3D('',#1218,#987,#988);
#812=AXIS2_PLACEMENT_3D('',#1220,#989,#990);
#813=AXIS2_PLACEMENT_3D('',#1222,#991,#992);
#814=AXIS2_PLACEMENT_3D('',#1223,#993,#994);
#815=AXIS2_PLACEMENT_3D('',#1225,#996,#997);
#816=AXIS2_PLACEMENT_3D('',#1227,#999,#1000);
#817=AXIS2_PLACEMENT_3D('',#1229,#1002,#1003);
#818=AXIS2_PLACEMENT_3D('',#1231,#1005,#1006);
#819=AXIS2_PLACEMENT_3D('',#1235,#1009,#1010);
#820=AXIS2_PLACEMENT_3D('',#1239,#1012,#1013);
#821=AXIS2_PLACEMENT_3D('',#1241,#1015,#1016);
#822=AXIS2_PLACEMENT_3D('',#1245,#1019,#1020);
#823=AXIS2_PLACEMENT_3D('',#1248,#1022,#1023);
#824=AXIS2_PLACEMENT_3D('',#1249,#1024,#1025);
#825=AXIS2_PLACEMENT_3D('',#1253,#1028,#1029);
#826=AXIS2_PLACEMENT_3D('',#1257,#1032,#1033);
#827=AXIS2_PLACEMENT_3D('',#1259,#1035,#1036);
#828=AXIS2_PLACEMENT_3D('',#1262,#1038,#1039);
#829=AXIS2_PLACEMENT_3D('',#1263,#1040,#1041);
#830=AXIS2_PLACEMENT_3D('',#1267,#1044,#1045);
#831=AXIS2_PLACEMENT_3D('',#1268,#1046,#1047);
#832=AXIS2_PLACEMENT_3D('',#1269,#1048,#1049);
#833=AXIS2_PLACEMENT_3D('',#1279,#1050,#1051);
#834=AXIS2_PLACEMENT_3D('',#1280,#1052,#1053);
#835=AXIS2_PLACEMENT_3D('',#1281,#1054,#1055);
#836=AXIS2_PLACEMENT_3D('',#1292,#1056,#1057);
#837=AXIS2_PLACEMENT_3D('',#1293,#1058,#1059);
#838=AXIS2_PLACEMENT_3D('',#1294,#1060,#1061);
#839=AXIS2_PLACEMENT_3D('',#1295,#1062,#1063);
#840=AXIS2_PLACEMENT_3D('',#1306,#1065,#1066);
#841=AXIS2_PLACEMENT_3D('',#1307,#1067,#1068);
#842=AXIS2_PLACEMENT_3D('',#1308,#1069,#1070);
#843=AXIS2_PLACEMENT_3D('',#1318,#1071,#1072);
#844=AXIS2_PLACEMENT_3D('',#1320,#1074,#1075);
#845=AXIS2_PLACEMENT_3D('',#1321,#1076,#1077);
#846=DIRECTION('axis',(0.,0.,1.));
#847=DIRECTION('refdir',(1.,0.,0.));
#848=DIRECTION('center_axis',(0.,1.,0.));
#849=DIRECTION('ref_axis',(0.,0.,1.));
#850=DIRECTION('center_axis',(-5.5511151231258E-15,0.,1.));
#851=DIRECTION('ref_axis',(0.,-1.,0.));
#852=DIRECTION('center_axis',(0.,1.,0.));
#853=DIRECTION('ref_axis',(-0.707106781186549,0.,0.707106781186546));
#854=DIRECTION('center_axis',(-1.,0.,0.));
#855=DIRECTION('ref_axis',(0.,0.,-1.));
#856=DIRECTION('center_axis',(0.,-1.,0.));
#857=DIRECTION('ref_axis',(-0.707106781186549,0.,0.707106781186546));
#858=DIRECTION('center_axis',(1.,0.,-1.69094932824386E-16));
#859=DIRECTION('ref_axis',(0.,-0.707106781186548,-0.707106781186547));
#860=DIRECTION('center_axis',(-1.,0.,0.));
#861=DIRECTION('ref_axis',(0.,0.,-1.));
#862=DIRECTION('',(-1.,0.,1.69094932824386E-16));
#863=DIRECTION('',(1.,0.,-1.69094932824386E-16));
#864=DIRECTION('center_axis',(0.,1.,0.));
#865=DIRECTION('ref_axis',(0.,0.,1.));
#866=DIRECTION('center_axis',(0.,0.,1.));
#867=DIRECTION('ref_axis',(-1.,0.,0.));
#868=DIRECTION('center_axis',(0.,-1.,0.));
#869=DIRECTION('ref_axis',(0.707106781186548,0.,0.707106781186547));
#870=DIRECTION('center_axis',(0.,1.,0.));
#871=DIRECTION('ref_axis',(0.707106781186548,0.,0.707106781186547));
#872=DIRECTION('center_axis',(0.,0.,-1.));
#873=DIRECTION('ref_axis',(-0.707106781186546,-0.707106781186549,0.));
#874=DIRECTION('center_axis',(0.,0.,1.));
#875=DIRECTION('ref_axis',(-1.,0.,0.));
#876=DIRECTION('',(0.,0.,1.));
#877=DIRECTION('',(0.,0.,-1.));
#878=DIRECTION('center_axis',(0.,1.,0.));
#879=DIRECTION('ref_axis',(0.,0.,1.));
#880=DIRECTION('center_axis',(1.,0.,0.));
#881=DIRECTION('ref_axis',(0.,0.,1.));
#882=DIRECTION('center_axis',(0.,-1.,0.));
#883=DIRECTION('ref_axis',(0.70710678118655,0.,-0.707106781186545));
#884=DIRECTION('center_axis',(0.,1.,0.));
#885=DIRECTION('ref_axis',(0.70710678118655,0.,-0.707106781186545));
#886=DIRECTION('center_axis',(-1.,0.,9.66256758996491E-17));
#887=DIRECTION('ref_axis',(0.,-0.707106781186548,0.707106781186548));
#888=DIRECTION('center_axis',(1.,0.,0.));
#889=DIRECTION('ref_axis',(0.,0.,1.));
#890=DIRECTION('',(1.,0.,-9.66256758996491E-17));
#891=DIRECTION('',(-1.,0.,9.66256758996491E-17));
#892=DIRECTION('center_axis',(0.,1.,0.));
#893=DIRECTION('ref_axis',(0.,0.,1.));
#894=DIRECTION('center_axis',(0.,0.,-1.));
#895=DIRECTION('ref_axis',(1.,0.,0.));
#896=DIRECTION('center_axis',(0.,-1.,0.));
#897=DIRECTION('ref_axis',(-0.707106781186547,0.,-0.707106781186547));
#898=DIRECTION('center_axis',(0.,1.,0.));
#899=DIRECTION('ref_axis',(-0.707106781186548,0.,-0.707106781186548));
#900=DIRECTION('center_axis',(0.,0.,1.));
#901=DIRECTION('ref_axis',(0.707106781186546,-0.707106781186549,0.));
#902=DIRECTION('',(0.,0.,-1.));
#903=DIRECTION('',(0.,0.,1.));
#904=DIRECTION('center_axis',(1.,0.,0.));
#905=DIRECTION('ref_axis',(0.,0.,-1.));
#906=DIRECTION('',(0.,1.,0.));
#907=DIRECTION('',(0.,0.,1.));
#908=DIRECTION('',(0.,1.,0.));
#909=DIRECTION('center_axis',(0.,1.,0.));
#910=DIRECTION('ref_axis',(1.,0.,-6.66133814775095E-16));
#911=DIRECTION('',(0.,1.,0.));
#912=DIRECTION('center_axis',(0.,-1.,0.));
#913=DIRECTION('ref_axis',(1.,0.,-6.66133814775095E-16));
#914=DIRECTION('center_axis',(1.69094932824386E-16,0.,1.));
#915=DIRECTION('ref_axis',(1.,0.,-1.69094932824386E-16));
#916=DIRECTION('',(0.,1.,0.));
#917=DIRECTION('',(-1.,0.,1.69094932824386E-16));
#918=DIRECTION('center_axis',(0.,1.,0.));
#919=DIRECTION('ref_axis',(0.,0.,1.));
#920=DIRECTION('',(0.,1.,0.));
#921=DIRECTION('center_axis',(0.,-1.,0.));
#922=DIRECTION('ref_axis',(0.,0.,1.));
#923=DIRECTION('center_axis',(0.,1.,0.));
#924=DIRECTION('ref_axis',(1.,0.,0.));
#925=DIRECTION('',(0.,0.,1.));
#926=DIRECTION('center_axis',(0.,1.,0.));
#927=DIRECTION('ref_axis',(-0.707106781186547,0.,-0.707106781186548));
#928=DIRECTION('',(-1.,0.,0.));
#929=DIRECTION('center_axis',(0.,1.,0.));
#930=DIRECTION('ref_axis',(0.70710678118655,0.,-0.707106781186545));
#931=DIRECTION('',(0.,0.,-1.));
#932=DIRECTION('center_axis',(0.,1.,0.));
#933=DIRECTION('ref_axis',(0.707106781186551,0.,0.707106781186544));
#934=DIRECTION('',(1.,0.,0.));
#935=DIRECTION('center_axis',(0.,1.,0.));
#936=DIRECTION('ref_axis',(-0.707106781186548,0.,0.707106781186548));
#937=DIRECTION('center_axis',(0.,1.,0.));
#938=DIRECTION('ref_axis',(-1.,0.,0.));
#939=DIRECTION('center_axis',(0.,1.,0.));
#940=DIRECTION('ref_axis',(-1.,0.,0.));
#941=DIRECTION('center_axis',(0.,1.,0.));
#942=DIRECTION('ref_axis',(-1.,0.,0.));
#943=DIRECTION('center_axis',(0.,1.,0.));
#944=DIRECTION('ref_axis',(-1.,0.,0.));
#945=DIRECTION('center_axis',(-9.66256758996491E-17,0.,-1.));
#946=DIRECTION('ref_axis',(-1.,0.,9.66256758996491E-17));
#947=DIRECTION('',(0.,1.,0.));
#948=DIRECTION('',(1.,0.,-9.66256758996491E-17));
#949=DIRECTION('',(0.,1.,0.));
#950=DIRECTION('center_axis',(0.,1.,0.));
#951=DIRECTION('ref_axis',(0.,0.,-1.));
#952=DIRECTION('center_axis',(0.,-1.,0.));
#953=DIRECTION('ref_axis',(0.,0.,-1.));
#954=DIRECTION('center_axis',(-1.,0.,0.));
#955=DIRECTION('ref_axis',(0.,0.,1.));
#956=DIRECTION('',(0.,1.,0.));
#957=DIRECTION('',(0.,0.,-1.));
#958=DIRECTION('center_axis',(0.,1.,0.));
#959=DIRECTION('ref_axis',(-1.,0.,-2.22044604925032E-16));
#960=DIRECTION('center_axis',(0.,-1.,0.));
#961=DIRECTION('ref_axis',(-1.,0.,-2.22044604925032E-16));
#962=DIRECTION('center_axis',(0.,0.,1.));
#963=DIRECTION('ref_axis',(1.,0.,0.));
#964=DIRECTION('',(-1.,0.,0.));
#965=DIRECTION('',(0.,1.,0.));
#966=DIRECTION('',(1.,0.,0.));
#967=DIRECTION('',(0.,-1.,0.));
#968=DIRECTION('center_axis',(0.,1.,0.));
#969=DIRECTION('ref_axis',(0.,0.,1.));
#970=DIRECTION('',(1.,0.,0.));
#971=DIRECTION('center_axis',(0.,-1.,0.));
#972=DIRECTION('ref_axis',(-0.707106781186547,0.,-0.707106781186547));
#973=DIRECTION('',(0.,0.,-1.));
#974=DIRECTION('center_axis',(0.,-1.,0.));
#975=DIRECTION('ref_axis',(-0.707106781186547,0.,0.707106781186547));
#976=DIRECTION('',(-1.,0.,0.));
#977=DIRECTION('center_axis',(0.,-1.,0.));
#978=DIRECTION('ref_axis',(0.707106781186547,0.,0.707106781186547));
#979=DIRECTION('',(0.,0.,1.));
#980=DIRECTION('center_axis',(0.,-1.,0.));
#981=DIRECTION('ref_axis',(0.707106781186547,0.,-0.707106781186547));
#982=DIRECTION('',(0.,0.,1.));
#983=DIRECTION('',(0.,0.,-1.));
#984=DIRECTION('',(-1.,0.,0.));
#985=DIRECTION('center_axis',(0.,-1.,0.));
#986=DIRECTION('ref_axis',(-1.,0.,0.));
#987=DIRECTION('center_axis',(0.,-1.,0.));
#988=DIRECTION('ref_axis',(-1.,0.,0.));
#989=DIRECTION('center_axis',(0.,-1.,0.));
#990=DIRECTION('ref_axis',(-1.,0.,0.));
#991=DIRECTION('center_axis',(0.,-1.,0.));
#992=DIRECTION('ref_axis',(-1.,0.,0.));
#993=DIRECTION('center_axis',(0.,-1.,0.));
#994=DIRECTION('ref_axis',(-1.,0.,0.));
#995=DIRECTION('',(0.,-1.,0.));
#996=DIRECTION('center_axis',(0.,-1.,0.));
#997=DIRECTION('ref_axis',(-1.,0.,0.));
#998=DIRECTION('',(0.,-1.,0.));
#999=DIRECTION('center_axis',(0.,-1.,0.));
#1000=DIRECTION('ref_axis',(-1.,0.,0.));
#1001=DIRECTION('',(0.,-1.,0.));
#1002=DIRECTION('center_axis',(0.,-1.,0.));
#1003=DIRECTION('ref_axis',(-1.,0.,0.));
#1004=DIRECTION('',(0.,-1.,0.));
#1005=DIRECTION('center_axis',(1.,0.,0.));
#1006=DIRECTION('ref_axis',(0.,0.,-1.));
#1007=DIRECTION('',(0.,0.,-1.));
#1008=DIRECTION('',(0.,1.,0.));
#1009=DIRECTION('center_axis',(0.,1.,0.));
#1010=DIRECTION('ref_axis',(0.707106781186547,0.,0.707106781186547));
#1011=DIRECTION('',(0.,-1.,0.));
#1012=DIRECTION('center_axis',(0.,-1.,0.));
#1013=DIRECTION('ref_axis',(0.707106781186551,0.,0.707106781186544));
#1014=DIRECTION('',(0.,-1.,0.));
#1015=DIRECTION('center_axis',(0.,0.,1.));
#1016=DIRECTION('ref_axis',(1.,0.,0.));
#1017=DIRECTION('',(0.,-1.,0.));
#1018=DIRECTION('',(-1.,0.,0.));
#1019=DIRECTION('center_axis',(0.,1.,0.));
#1020=DIRECTION('ref_axis',(-0.707106781186547,0.,0.707106781186547));
#1021=DIRECTION('',(0.,-1.,0.));
#1022=DIRECTION('center_axis',(0.,-1.,0.));
#1023=DIRECTION('ref_axis',(-0.707106781186547,0.,0.707106781186547));
#1024=DIRECTION('center_axis',(-1.,0.,0.));
#1025=DIRECTION('ref_axis',(0.,0.,1.));
#1026=DIRECTION('',(0.,-1.,0.));
#1027=DIRECTION('',(0.,0.,-1.));
#1028=DIRECTION('center_axis',(-1.,0.,0.));
#1029=DIRECTION('ref_axis',(0.,0.,1.));
#1030=DIRECTION('',(0.,1.,0.));
#1031=DIRECTION('',(0.,0.,1.));
#1032=DIRECTION('center_axis',(0.,0.,1.));
#1033=DIRECTION('ref_axis',(1.,0.,0.));
#1034=DIRECTION('',(1.,0.,0.));
#1035=DIRECTION('center_axis',(0.,1.,0.));
#1036=DIRECTION('ref_axis',(-0.707106781186547,0.,-0.707106781186547));
#1037=DIRECTION('',(0.,-1.,0.));
#1038=DIRECTION('center_axis',(0.,-1.,0.));
#1039=DIRECTION('ref_axis',(-0.707106781186547,0.,-0.707106781186548));
#1040=DIRECTION('center_axis',(0.,0.,-1.));
#1041=DIRECTION('ref_axis',(-1.,0.,0.));
#1042=DIRECTION('',(0.,-1.,0.));
#1043=DIRECTION('',(1.,0.,0.));
#1044=DIRECTION('center_axis',(0.,0.,-1.));
#1045=DIRECTION('ref_axis',(-0.707106781186546,-0.707106781186549,0.));
#1046=DIRECTION('center_axis',(0.,0.,-1.));
#1047=DIRECTION('ref_axis',(0.,-1.,0.));
#1048=DIRECTION('center_axis',(0.,0.,1.));
#1049=DIRECTION('ref_axis',(-1.,0.,0.));
#1050=DIRECTION('center_axis',(-1.,0.,0.));
#1051=DIRECTION('ref_axis',(0.,0.,-1.));
#1052=DIRECTION('center_axis',(1.,0.,0.));
#1053=DIRECTION('ref_axis',(0.,-0.707106781186547,-0.707106781186548));
#1054=DIRECTION('center_axis',(-1.,0.,0.));
#1055=DIRECTION('ref_axis',(0.,0.,-1.));
#1056=DIRECTION('center_axis',(0.,0.,-1.));
#1057=DIRECTION('ref_axis',(1.,0.,0.));
#1058=DIRECTION('center_axis',(0.,-1.,0.));
#1059=DIRECTION('ref_axis',(0.70710678118655,0.,-0.707106781186545));
#1060=DIRECTION('center_axis',(0.,0.,1.));
#1061=DIRECTION('ref_axis',(0.70710678118654,-0.707106781186555,0.));
#1062=DIRECTION('center_axis',(0.,0.,-1.));
#1063=DIRECTION('ref_axis',(1.,0.,0.));
#1064=DIRECTION('',(0.,0.,1.));
#1065=DIRECTION('center_axis',(1.,0.,0.));
#1066=DIRECTION('ref_axis',(0.,0.,1.));
#1067=DIRECTION('center_axis',(-1.,0.,0.));
#1068=DIRECTION('ref_axis',(0.,-0.707106781186546,0.707106781186549));
#1069=DIRECTION('center_axis',(1.,0.,0.));
#1070=DIRECTION('ref_axis',(0.,0.,1.));
#1071=DIRECTION('center_axis',(0.,1.,0.));
#1072=DIRECTION('ref_axis',(0.707106781186547,0.,-0.707106781186547));
#1073=DIRECTION('',(0.,-1.,0.));
#1074=DIRECTION('center_axis',(0.,1.,0.));
#1075=DIRECTION('ref_axis',(1.,0.,0.));
#1076=DIRECTION('center_axis',(1.,0.,0.));
#1077=DIRECTION('ref_axis',(0.,0.,-1.));
#1078=CARTESIAN_POINT('',(0.,0.,0.));
#1079=CARTESIAN_POINT('Origin',(45.7074081304511,-10.04,-4.37175608424778));
#1080=CARTESIAN_POINT('',(43.7074081304511,-11.04,-4.37175608424779));
#1081=CARTESIAN_POINT('',(44.7074081304511,-10.04,-4.37175608424778));
#1082=CARTESIAN_POINT('Origin',(43.7074081304511,-10.04,-4.37175608424779));
#1083=CARTESIAN_POINT('',(45.7074081304511,-10.04,-3.37175608424778));
#1084=CARTESIAN_POINT('Origin',(45.7074081304511,-10.04,-4.37175608424778));
#1085=CARTESIAN_POINT('',(45.7074081304511,-11.04,-2.37175608424778));
#1086=CARTESIAN_POINT('Origin',(45.7074081304511,-10.04,-2.37175608424778));
#1087=CARTESIAN_POINT('Origin',(45.7074081304511,-11.04,-4.37175608424778));
#1088=CARTESIAN_POINT('Origin',(42.1468377168481,-10.04,-2.37175608424778));
#1089=CARTESIAN_POINT('',(68.6872841165851,-10.04,-3.37175608424778));
#1090=CARTESIAN_POINT('',(68.6872841165851,-11.04,-2.37175608424778));
#1091=CARTESIAN_POINT('Origin',(68.6872841165851,-10.04,-2.37175608424778));
#1092=CARTESIAN_POINT('',(42.1468377168481,-11.04,-2.37175608424778));
#1093=CARTESIAN_POINT('',(42.1468377168481,-10.04,-3.37175608424778));
#1094=CARTESIAN_POINT('Origin',(68.6872841165851,-10.04,-13.3717560842478));
#1095=CARTESIAN_POINT('',(78.6872841165851,-10.04,-13.3717560842478));
#1096=CARTESIAN_POINT('',(79.6872841165851,-11.04,-13.3717560842478));
#1097=CARTESIAN_POINT('Origin',(79.6872841165851,-10.04,-13.3717560842478));
#1098=CARTESIAN_POINT('Origin',(68.6872841165851,-11.04,-13.3717560842478));
#1099=CARTESIAN_POINT('Origin',(68.6872841165851,-10.04,-13.3717560842478));
#1100=CARTESIAN_POINT('Origin',(79.6872841165851,-10.04,2.89132387679218));
#1101=CARTESIAN_POINT('',(78.6872841165851,-10.04,-17.8964527231186));
#1102=CARTESIAN_POINT('',(79.6872841165851,-11.04,-17.8964527231186));
#1103=CARTESIAN_POINT('Origin',(79.6872841165851,-10.04,-17.8964527231186));
#1104=CARTESIAN_POINT('',(79.6872841165851,-11.04,2.89132387679218));
#1105=CARTESIAN_POINT('',(78.6872841165851,-10.04,2.89132387679218));
#1106=CARTESIAN_POINT('Origin',(77.6872841165851,-10.04,-17.8964527231186));
#1107=CARTESIAN_POINT('',(77.6872841165851,-10.04,-18.8964527231186));
#1108=CARTESIAN_POINT('',(77.6872841165851,-11.04,-19.8964527231186));
#1109=CARTESIAN_POINT('Origin',(77.6872841165851,-10.04,-19.8964527231186));
#1110=CARTESIAN_POINT('Origin',(77.6872841165851,-11.04,-17.8964527231186));
#1111=CARTESIAN_POINT('Origin',(77.6872841165851,-10.04,-17.8964527231186));
#1112=CARTESIAN_POINT('Origin',(58.1367757099151,-10.04,-19.8964527231186));
#1113=CARTESIAN_POINT('',(54.7074081304511,-10.04,-18.8964527231186));
#1114=CARTESIAN_POINT('',(54.7074081304511,-11.04,-19.8964527231186));
#1115=CARTESIAN_POINT('Origin',(54.7074081304511,-10.04,-19.8964527231186));
#1116=CARTESIAN_POINT('',(58.1367757099151,-11.04,-19.8964527231186));
#1117=CARTESIAN_POINT('',(58.1367757099151,-10.04,-18.8964527231186));
#1118=CARTESIAN_POINT('Origin',(54.7074081304511,-10.04,-8.89645272311863));
#1119=CARTESIAN_POINT('',(44.7074081304511,-10.04,-8.89645272311863));
#1120=CARTESIAN_POINT('',(43.7074081304511,-11.04,-8.89645272311863));
#1121=CARTESIAN_POINT('Origin',(43.7074081304511,-10.04,-8.89645272311863));
#1122=CARTESIAN_POINT('Origin',(54.7074081304511,-11.04,-8.89645272311863));
#1123=CARTESIAN_POINT('Origin',(54.7074081304511,-10.04,-8.89645272311863));
#1124=CARTESIAN_POINT('Origin',(43.7074081304511,-10.04,5.12897555735676));
#1125=CARTESIAN_POINT('',(43.7074081304511,-11.04,5.12897555735676));
#1126=CARTESIAN_POINT('',(44.7074081304511,-10.04,5.12897555735676));
#1127=CARTESIAN_POINT('Origin',(78.6872841165851,-11.04,-13.3717560842478));
#1128=CARTESIAN_POINT('',(78.6872841165851,-9.54,-13.3717560842478));
#1129=CARTESIAN_POINT('',(78.6872841165851,-11.04,-13.3717560842478));
#1130=CARTESIAN_POINT('',(78.6872841165851,-9.54,-17.8964527231186));
#1131=CARTESIAN_POINT('',(78.6872841165851,-9.54,2.89132387679218));
#1132=CARTESIAN_POINT('',(78.6872841165851,-11.04,-17.8964527231186));
#1133=CARTESIAN_POINT('Origin',(68.6872841165851,-11.04,-13.3717560842478));
#1134=CARTESIAN_POINT('',(68.6872841165851,-9.54,-3.37175608424778));
#1135=CARTESIAN_POINT('',(68.6872841165851,-11.04,-3.37175608424778));
#1136=CARTESIAN_POINT('Origin',(68.6872841165851,-9.54,-13.3717560842478));
#1137=CARTESIAN_POINT('Origin',(45.7074081304511,-11.04,-3.37175608424778));
#1138=CARTESIAN_POINT('',(45.7074081304511,-9.54,-3.37175608424778));
#1139=CARTESIAN_POINT('',(45.7074081304511,-11.04,-3.37175608424778));
#1140=CARTESIAN_POINT('',(42.1468377168481,-9.54,-3.37175608424778));
#1141=CARTESIAN_POINT('Origin',(45.7074081304511,-11.04,-4.37175608424778));
#1142=CARTESIAN_POINT('',(44.7074081304511,-9.54,-4.37175608424778));
#1143=CARTESIAN_POINT('',(44.7074081304511,-11.04,-4.37175608424778));
#1144=CARTESIAN_POINT('Origin',(45.7074081304511,-9.54,-4.37175608424778));
#1145=CARTESIAN_POINT('Origin',(38.5862673032451,-11.04,19.1544038378321));
#1146=CARTESIAN_POINT('',(-12.776232696755,-11.04,-30.0175961621679));
#1147=CARTESIAN_POINT('',(-12.776232696755,-11.04,69.6324038378322));
#1148=CARTESIAN_POINT('',(-12.776232696755,-11.04,-6.68159616216786));
#1149=CARTESIAN_POINT('',(-12.276232696755,-11.04,-30.5175961621679));
#1150=CARTESIAN_POINT('Origin',(-12.276232696755,-11.04,-30.0175961621679));
#1151=CARTESIAN_POINT('',(89.448767303245,-11.04,-30.5175961621679));
#1152=CARTESIAN_POINT('',(65.2675173032451,-11.04,-30.5175961621679));
#1153=CARTESIAN_POINT('',(89.948767303245,-11.04,-30.0175961621679));
#1154=CARTESIAN_POINT('Origin',(89.448767303245,-11.04,-30.0175961621679));
#1155=CARTESIAN_POINT('',(89.948767303245,-11.04,69.6324038378322));
#1156=CARTESIAN_POINT('',(89.948767303245,-11.04,45.6434038378321));
#1157=CARTESIAN_POINT('',(89.448767303245,-11.04,70.1324038378322));
#1158=CARTESIAN_POINT('Origin',(89.448767303245,-11.04,69.6324038378322));
#1159=CARTESIAN_POINT('',(-12.276232696755,-11.04,70.1324038378322));
#1160=CARTESIAN_POINT('',(11.9050173032451,-11.04,70.1324038378322));
#1161=CARTESIAN_POINT('Origin',(-12.276232696755,-11.04,69.6324038378322));
#1162=CARTESIAN_POINT('',(-8.07623269675496,-11.04,-27.5175961621679));
#1163=CARTESIAN_POINT('Origin',(-9.77623269675495,-11.04,-27.5175961621679));
#1164=CARTESIAN_POINT('',(88.648767303245,-11.04,-27.5175961621679));
#1165=CARTESIAN_POINT('Origin',(86.948767303245,-11.04,-27.5175961621679));
#1166=CARTESIAN_POINT('',(-8.07623269675496,-11.04,67.1324038378322));
#1167=CARTESIAN_POINT('Origin',(-9.77623269675496,-11.04,67.1324038378322));
#1168=CARTESIAN_POINT('',(88.648767303245,-11.04,67.1324038378321));
#1169=CARTESIAN_POINT('Origin',(86.948767303245,-11.04,67.1324038378321));
#1170=CARTESIAN_POINT('Origin',(77.6872841165851,-11.04,-18.8964527231186));
#1171=CARTESIAN_POINT('',(77.6872841165851,-9.54,-18.8964527231186));
#1172=CARTESIAN_POINT('',(77.6872841165851,-11.04,-18.8964527231186));
#1173=CARTESIAN_POINT('',(54.7074081304511,-9.54,-18.8964527231186));
#1174=CARTESIAN_POINT('',(58.1367757099151,-9.54,-18.8964527231186));
#1175=CARTESIAN_POINT('',(54.7074081304511,-11.04,-18.8964527231186));
#1176=CARTESIAN_POINT('Origin',(77.6872841165851,-11.04,-17.8964527231186));
#1177=CARTESIAN_POINT('Origin',(77.6872841165851,-9.54,-17.8964527231186));
#1178=CARTESIAN_POINT('Origin',(44.7074081304511,-11.04,-8.89645272311863));
#1179=CARTESIAN_POINT('',(44.7074081304511,-9.54,-8.89645272311863));
#1180=CARTESIAN_POINT('',(44.7074081304511,-11.04,-8.89645272311863));
#1181=CARTESIAN_POINT('',(44.7074081304511,-9.54,5.12897555735676));
#1182=CARTESIAN_POINT('Origin',(54.7074081304511,-11.04,-8.89645272311863));
#1183=CARTESIAN_POINT('Origin',(54.7074081304511,-9.54,-8.89645272311863));
#1184=CARTESIAN_POINT('Origin',(82.4487673032451,-11.04,61.8264038378321));
#1185=CARTESIAN_POINT('',(82.4487673032451,-6.04,61.8264038378321));
#1186=CARTESIAN_POINT('',(-5.27623269675493,-6.04,61.8264038378321));
#1187=CARTESIAN_POINT('',(55.6767673032451,-6.04,61.8264038378321));
#1188=CARTESIAN_POINT('',(82.4487673032451,-9.54,61.8264038378321));
#1189=CARTESIAN_POINT('',(82.4487673032451,-11.04,61.8264038378321));
#1190=CARTESIAN_POINT('',(-5.27623269675492,-9.54,61.8264038378321));
#1191=CARTESIAN_POINT('',(60.5175173032451,-9.54,61.8264038378321));
#1192=CARTESIAN_POINT('',(-5.27623269675492,-11.04,61.8264038378321));
#1193=CARTESIAN_POINT('Origin',(28.904767303245,-6.04,-27.7675961621679));
#1194=CARTESIAN_POINT('',(-12.276232696755,-6.04,-32.5175961621679));
#1195=CARTESIAN_POINT('',(89.448767303245,-6.04,-32.5175961621679));
#1196=CARTESIAN_POINT('',(60.426767303245,-6.04,-32.5175961621679));
#1197=CARTESIAN_POINT('',(-14.776232696755,-6.04,-30.0175961621679));
#1198=CARTESIAN_POINT('Origin',(-12.276232696755,-6.04,-30.0175961621679));
#1199=CARTESIAN_POINT('',(-14.776232696755,-6.04,69.6324038378321));
#1200=CARTESIAN_POINT('',(-14.776232696755,-6.04,-30.1425961621679));
#1201=CARTESIAN_POINT('',(-12.276232696755,-6.04,72.1324038378321));
#1202=CARTESIAN_POINT('Origin',(-12.276232696755,-6.04,69.6324038378322));
#1203=CARTESIAN_POINT('',(89.448767303245,-6.04,72.1324038378321));
#1204=CARTESIAN_POINT('',(7.06426730324504,-6.04,72.1324038378322));
#1205=CARTESIAN_POINT('',(91.948767303245,-6.04,69.6324038378321));
#1206=CARTESIAN_POINT('Origin',(89.448767303245,-6.04,69.6324038378322));
#1207=CARTESIAN_POINT('',(91.948767303245,-6.04,-30.0175961621679));
#1208=CARTESIAN_POINT('',(91.948767303245,-6.04,22.1824038378321));
#1209=CARTESIAN_POINT('Origin',(89.448767303245,-6.04,-30.0175961621679));
#1210=CARTESIAN_POINT('',(82.4487673032451,-6.04,-23.0175961621679));
#1211=CARTESIAN_POINT('',(82.4487673032451,-6.04,16.7794038378321));
#1212=CARTESIAN_POINT('',(-5.27623269675492,-6.04,-23.0175961621679));
#1213=CARTESIAN_POINT('',(-5.27623269675492,-6.04,16.7794038378321));
#1214=CARTESIAN_POINT('',(11.8142673032451,-6.04,-23.0175961621679));
#1215=CARTESIAN_POINT('',(-8.07623269675496,-6.04,-27.5175961621679));
#1216=CARTESIAN_POINT('Origin',(-9.77623269675495,-6.04,-27.5175961621679));
#1217=CARTESIAN_POINT('',(88.648767303245,-6.04,-27.5175961621679));
#1218=CARTESIAN_POINT('Origin',(86.948767303245,-6.04,-27.5175961621679));
#1219=CARTESIAN_POINT('',(-8.07623269675496,-6.04,67.1324038378322));
#1220=CARTESIAN_POINT('Origin',(-9.77623269675496,-6.04,67.1324038378322));
#1221=CARTESIAN_POINT('',(88.648767303245,-6.04,67.1324038378321));
#1222=CARTESIAN_POINT('Origin',(86.948767303245,-6.04,67.1324038378321));
#1223=CARTESIAN_POINT('Origin',(86.948767303245,-6.04,67.1324038378321));
#1224=CARTESIAN_POINT('',(88.648767303245,-6.04,67.1324038378321));
#1225=CARTESIAN_POINT('Origin',(-9.77623269675496,-6.04,67.1324038378322));
#1226=CARTESIAN_POINT('',(-8.07623269675496,-6.04,67.1324038378322));
#1227=CARTESIAN_POINT('Origin',(86.948767303245,-6.04,-27.5175961621679));
#1228=CARTESIAN_POINT('',(88.648767303245,-6.04,-27.5175961621679));
#1229=CARTESIAN_POINT('Origin',(-9.77623269675495,-6.04,-27.5175961621679));
#1230=CARTESIAN_POINT('',(-8.07623269675496,-6.04,-27.5175961621679));
#1231=CARTESIAN_POINT('Origin',(-5.27623269675492,-11.04,61.3264038378321));
#1232=CARTESIAN_POINT('',(-5.27623269675492,-9.54,-23.0175961621679));
#1233=CARTESIAN_POINT('',(-5.27623269675492,-9.54,40.5669038378321));
#1234=CARTESIAN_POINT('',(-5.27623269675492,-11.04,-23.0175961621679));
#1235=CARTESIAN_POINT('Origin',(89.448767303245,-11.04,69.6324038378322));
#1236=CARTESIAN_POINT('',(89.448767303245,-9.04,72.1324038378322));
#1237=CARTESIAN_POINT('',(89.448767303245,-9.54,72.1324038378322));
#1238=CARTESIAN_POINT('',(91.948767303245,-9.04,69.6324038378322));
#1239=CARTESIAN_POINT('Origin',(89.448767303245,-9.04,69.6324038378322));
#1240=CARTESIAN_POINT('',(91.948767303245,-9.54,69.6324038378322));
#1241=CARTESIAN_POINT('Origin',(-14.776232696755,-11.04,72.1324038378322));
#1242=CARTESIAN_POINT('',(-12.276232696755,-9.04,72.1324038378322));
#1243=CARTESIAN_POINT('',(-12.276232696755,-9.54,72.1324038378322));
#1244=CARTESIAN_POINT('',(11.9050173032451,-9.04,72.1324038378322));
#1245=CARTESIAN_POINT('Origin',(-12.276232696755,-11.04,69.6324038378322));
#1246=CARTESIAN_POINT('',(-14.776232696755,-9.04,69.6324038378322));
#1247=CARTESIAN_POINT('',(-14.776232696755,-11.04,69.6324038378322));
#1248=CARTESIAN_POINT('Origin',(-12.276232696755,-9.04,69.6324038378322));
#1249=CARTESIAN_POINT('Origin',(-14.776232696755,-11.04,-32.5175961621679));
#1250=CARTESIAN_POINT('',(-14.776232696755,-9.04,-30.0175961621679));
#1251=CARTESIAN_POINT('',(-14.776232696755,-9.54,-30.0175961621679));
#1252=CARTESIAN_POINT('',(-14.776232696755,-9.04,-6.68159616216786));
#1253=CARTESIAN_POINT('Origin',(82.4487673032451,-11.04,-23.0175961621679));
#1254=CARTESIAN_POINT('',(82.4487673032451,-9.54,-23.0175961621679));
#1255=CARTESIAN_POINT('',(82.4487673032451,-11.04,-23.0175961621679));
#1256=CARTESIAN_POINT('',(82.4487673032451,-9.54,61.3264038378321));
#1257=CARTESIAN_POINT('Origin',(-5.27623269675492,-11.04,-23.0175961621679));
#1258=CARTESIAN_POINT('',(16.6550173032451,-9.54,-23.0175961621679));
#1259=CARTESIAN_POINT('Origin',(-12.276232696755,-11.04,-30.0175961621679));
#1260=CARTESIAN_POINT('',(-12.276232696755,-9.04,-32.5175961621679));
#1261=CARTESIAN_POINT('',(-12.276232696755,-9.54,-32.5175961621679));
#1262=CARTESIAN_POINT('Origin',(-12.276232696755,-9.04,-30.0175961621679));
#1263=CARTESIAN_POINT('Origin',(91.948767303245,-11.04,-32.5175961621679));
#1264=CARTESIAN_POINT('',(89.448767303245,-9.04,-32.5175961621679));
#1265=CARTESIAN_POINT('',(89.448767303245,-9.54,-32.5175961621679));
#1266=CARTESIAN_POINT('',(65.2675173032451,-9.04,-32.5175961621679));
#1267=CARTESIAN_POINT('Origin',(-12.776232696755,-9.04,-6.68159616216786));
#1268=CARTESIAN_POINT('Origin',(-12.776232696755,-9.04,69.6324038378322));
#1269=CARTESIAN_POINT('Origin',(-12.776232696755,-9.04,-30.0175961621679));
#1270=CARTESIAN_POINT('Ctrl Pts',(-14.776232696755,-9.04,-30.0175961621679));
#1271=CARTESIAN_POINT('Ctrl Pts',(-14.776232696755,-9.04,-32.5175961621679));
#1272=CARTESIAN_POINT('Ctrl Pts',(-12.276232696755,-9.04,-32.5175961621679));
#1273=CARTESIAN_POINT('Ctrl Pts',(-14.776232696755,-11.04,-30.0175961621679));
#1274=CARTESIAN_POINT('Ctrl Pts',(-14.776232696755,-11.04,-32.5175961621679));
#1275=CARTESIAN_POINT('Ctrl Pts',(-12.276232696755,-11.04,-32.5175961621679));
#1276=CARTESIAN_POINT('Ctrl Pts',(-12.7762326967549,-11.04,-30.0175961621679));
#1277=CARTESIAN_POINT('Ctrl Pts',(-12.7762326967549,-11.04,-30.5175961621679));
#1278=CARTESIAN_POINT('Ctrl Pts',(-12.276232696755,-11.04,-30.5175961621679));
#1279=CARTESIAN_POINT('Origin',(-12.276232696755,-9.04,-30.5175961621679));
#1280=CARTESIAN_POINT('Origin',(65.2675173032451,-9.04,-30.5175961621679));
#1281=CARTESIAN_POINT('Origin',(89.448767303245,-9.04,-30.5175961621679));
#1282=CARTESIAN_POINT('Ctrl Pts',(89.448767303245,-9.04,-32.5175961621679));
#1283=CARTESIAN_POINT('Ctrl Pts',(91.948767303245,-9.04,-32.5175961621679));
#1284=CARTESIAN_POINT('Ctrl Pts',(91.948767303245,-9.04,-30.0175961621679));
#1285=CARTESIAN_POINT('Ctrl Pts',(89.448767303245,-11.04,-32.5175961621679));
#1286=CARTESIAN_POINT('Ctrl Pts',(91.948767303245,-11.04,-32.5175961621679));
#1287=CARTESIAN_POINT('Ctrl Pts',(91.948767303245,-11.04,-30.0175961621679));
#1288=CARTESIAN_POINT('Ctrl Pts',(89.448767303245,-11.04,-30.5175961621678));
#1289=CARTESIAN_POINT('Ctrl Pts',(89.948767303245,-11.04,-30.5175961621678));
#1290=CARTESIAN_POINT('Ctrl Pts',(89.948767303245,-11.04,-30.0175961621679));
#1291=CARTESIAN_POINT('',(91.948767303245,-9.04,-30.0175961621679));
#1292=CARTESIAN_POINT('Origin',(89.948767303245,-9.04,-30.0175961621679));
#1293=CARTESIAN_POINT('Origin',(89.448767303245,-9.04,-30.0175961621679));
#1294=CARTESIAN_POINT('Origin',(89.948767303245,-9.04,45.6434038378321));
#1295=CARTESIAN_POINT('Origin',(89.948767303245,-9.04,69.6324038378322));
#1296=CARTESIAN_POINT('',(91.948767303245,-9.04,45.6434038378321));
#1297=CARTESIAN_POINT('Ctrl Pts',(91.948767303245,-9.04,69.6324038378322));
#1298=CARTESIAN_POINT('Ctrl Pts',(91.948767303245,-9.04,72.1324038378322));
#1299=CARTESIAN_POINT('Ctrl Pts',(89.448767303245,-9.04,72.1324038378322));
#1300=CARTESIAN_POINT('Ctrl Pts',(91.948767303245,-11.04,69.6324038378322));
#1301=CARTESIAN_POINT('Ctrl Pts',(91.948767303245,-11.04,72.1324038378322));
#1302=CARTESIAN_POINT('Ctrl Pts',(89.448767303245,-11.04,72.1324038378322));
#1303=CARTESIAN_POINT('Ctrl Pts',(89.948767303245,-11.04,69.6324038378322));
#1304=CARTESIAN_POINT('Ctrl Pts',(89.948767303245,-11.04,70.1324038378322));
#1305=CARTESIAN_POINT('Ctrl Pts',(89.448767303245,-11.04,70.1324038378322));
#1306=CARTESIAN_POINT('Origin',(89.448767303245,-9.04,70.1324038378322));
#1307=CARTESIAN_POINT('Origin',(11.9050173032451,-9.04,70.1324038378322));
#1308=CARTESIAN_POINT('Origin',(-12.276232696755,-9.04,70.1324038378322));
#1309=CARTESIAN_POINT('Ctrl Pts',(-12.276232696755,-9.04,72.1324038378322));
#1310=CARTESIAN_POINT('Ctrl Pts',(-14.776232696755,-9.04,72.1324038378322));
#1311=CARTESIAN_POINT('Ctrl Pts',(-14.776232696755,-9.04,69.6324038378322));
#1312=CARTESIAN_POINT('Ctrl Pts',(-12.276232696755,-11.04,72.1324038378322));
#1313=CARTESIAN_POINT('Ctrl Pts',(-14.776232696755,-11.04,72.1324038378322));
#1314=CARTESIAN_POINT('Ctrl Pts',(-14.776232696755,-11.04,69.6324038378322));
#1315=CARTESIAN_POINT('Ctrl Pts',(-12.276232696755,-11.04,70.1324038378322));
#1316=CARTESIAN_POINT('Ctrl Pts',(-12.7762326967549,-11.04,70.1324038378322));
#1317=CARTESIAN_POINT('Ctrl Pts',(-12.7762326967549,-11.04,69.6324038378322));
#1318=CARTESIAN_POINT('Origin',(89.448767303245,-11.04,-30.0175961621679));
#1319=CARTESIAN_POINT('',(91.948767303245,-11.04,-30.0175961621679));
#1320=CARTESIAN_POINT('Origin',(38.5862673032451,-9.54,19.1544038378321));
#1321=CARTESIAN_POINT('Origin',(91.948767303245,-11.04,72.1324038378322));
#1322=UNCERTAINTY_MEASURE_WITH_UNIT(LENGTH_MEASURE(0.01),#1326,
'DISTANCE_ACCURACY_VALUE',
'Maximum model space distance between geometric entities at asserted c
onnectivities');
#1323=UNCERTAINTY_MEASURE_WITH_UNIT(LENGTH_MEASURE(0.01),#1326,
'DISTANCE_ACCURACY_VALUE',
'Maximum model space distance between geometric entities at asserted c
onnectivities');
#1324=(
GEOMETRIC_REPRESENTATION_CONTEXT(3)
GLOBAL_UNCERTAINTY_ASSIGNED_CONTEXT((#1322))
GLOBAL_UNIT_ASSIGNED_CONTEXT((#1326,#1328,#1329))
REPRESENTATION_CONTEXT('','3D')
);
#1325=(
GEOMETRIC_REPRESENTATION_CONTEXT(3)
GLOBAL_UNCERTAINTY_ASSIGNED_CONTEXT((#1323))
GLOBAL_UNIT_ASSIGNED_CONTEXT((#1326,#1328,#1329))
REPRESENTATION_CONTEXT('','3D')
);
#1326=(
LENGTH_UNIT()
NAMED_UNIT(*)
SI_UNIT(.MILLI.,.METRE.)
);
#1327=(
LENGTH_UNIT()
NAMED_UNIT(*)
SI_UNIT($,.METRE.)
);
#1328=(
NAMED_UNIT(*)
PLANE_ANGLE_UNIT()
SI_UNIT($,.RADIAN.)
);
#1329=(
NAMED_UNIT(*)
SI_UNIT($,.STERADIAN.)
SOLID_ANGLE_UNIT()
);
#1330=SHAPE_DEFINITION_REPRESENTATION(#1331,#1332);
#1331=PRODUCT_DEFINITION_SHAPE('',$,#1334);
#1332=SHAPE_REPRESENTATION('',(#758),#1324);
#1333=PRODUCT_DEFINITION_CONTEXT('part definition',#1338,'design');
#1334=PRODUCT_DEFINITION('2026-02-01-11-35-02-381','HackPad_Bottom',#1335,
#1333);
#1335=PRODUCT_DEFINITION_FORMATION('',$,#1340);
#1336=PRODUCT_RELATED_PRODUCT_CATEGORY('HackPad_Bottom',
'HackPad_Bottom',(#1340));
#1337=APPLICATION_PROTOCOL_DEFINITION('international standard',
'automotive_design',2009,#1338);
#1338=APPLICATION_CONTEXT(
'Core Data for Automotive Mechanical Design Process');
#1339=PRODUCT_CONTEXT('part definition',#1338,'mechanical');
#1340=PRODUCT('2026-02-01-11-35-02-381','HackPad_Bottom',$,(#1339));
#1341=PRESENTATION_STYLE_ASSIGNMENT((#1343));
#1342=PRESENTATION_STYLE_ASSIGNMENT((#1344));
#1343=SURFACE_STYLE_USAGE(.BOTH.,#1345);
#1344=SURFACE_STYLE_USAGE(.BOTH.,#1346);
#1345=SURFACE_SIDE_STYLE('',(#1347));
#1346=SURFACE_SIDE_STYLE('',(#1348));
#1347=SURFACE_STYLE_FILL_AREA(#1349);
#1348=SURFACE_STYLE_FILL_AREA(#1350);
#1349=FILL_AREA_STYLE('ABS (White)',(#1351));
#1350=FILL_AREA_STYLE('Polycarbonate (Clear)',(#1352));
#1351=FILL_AREA_STYLE_COLOUR('ABS (White)',#1353);
#1352=FILL_AREA_STYLE_COLOUR('Polycarbonate (Clear)',#1354);
#1353=COLOUR_RGB('ABS (White)',0.964705882352941,0.964705882352941,0.952941176470588);
#1354=COLOUR_RGB('Polycarbonate (Clear)',0.964705882352941,0.964705882352941,
0.952941176470588);
ENDSEC;
END-ISO-10303-21;
