ISO-10303-21;
HEADER;
/* Generated by software containing ST-Developer
 * from STEP Tools, Inc. (www.steptools.com) 
 */

FILE_DESCRIPTION(
/* description */ (''),
/* implementation_level */ '2;1');

FILE_NAME(
/* name */ 'HackPad_Knob.step',
/* time_stamp */ '2026-04-02T16:46:00+08:00',
/* author */ (''),
/* organization */ (''),
/* preprocessor_version */ 'ST-DEVELOPER v20.1',
/* originating_system */ 'Autodesk Translation Framework v14.24.0.0',
/* authorisation */ '');

FILE_SCHEMA (('AUTOMOTIVE_DESIGN { 1 0 10303 214 3 1 1 }'));
ENDSEC;

DATA;
#10=MECHANICAL_DESIGN_GEOMETRIC_PRESENTATION_REPRESENTATION('',(#17),#214);
#11=ITEM_DEFINED_TRANSFORMATION($,$,#124,#139);
#12=(
REPRESENTATION_RELATIONSHIP($,$,#225,#224)
REPRESENTATION_RELATIONSHIP_WITH_TRANSFORMATION(#11)
SHAPE_REPRESENTATION_RELATIONSHIP()
);
#13=CONTEXT_DEPENDENT_SHAPE_REPRESENTATION(#12,#223);
#14=NEXT_ASSEMBLY_USAGE_OCCURRENCE('Knob:1','Knob:1','Knob:1',#227,#228,
'Knob:1');
#15=SHAPE_REPRESENTATION_RELATIONSHIP('SRR','None',#225,#16);
#16=ADVANCED_BREP_SHAPE_REPRESENTATION('',(#18),#213);
#17=STYLED_ITEM('',(#238),#18);
#18=MANIFOLD_SOLID_BREP('Body1',#110);
#19=FACE_BOUND('',#44,.T.);
#20=TOROIDAL_SURFACE('',#130,5.00000000000001,0.5);
#21=CIRCLE('',#127,3.29999999999999);
#22=CIRCLE('',#128,3.29999999999999);
#23=CIRCLE('',#131,5.00000000000001);
#24=CIRCLE('',#132,0.5);
#25=CIRCLE('',#133,5.50000000000001);
#26=CIRCLE('',#134,5.50000000000001);
#27=CIRCLE('',#136,5.50000000000001);
#28=CYLINDRICAL_SURFACE('',#126,3.29999999999999);
#29=CYLINDRICAL_SURFACE('',#135,5.50000000000001);
#30=FACE_OUTER_BOUND('',#37,.T.);
#31=FACE_OUTER_BOUND('',#38,.T.);
#32=FACE_OUTER_BOUND('',#39,.T.);
#33=FACE_OUTER_BOUND('',#40,.T.);
#34=FACE_OUTER_BOUND('',#41,.T.);
#35=FACE_OUTER_BOUND('',#42,.T.);
#36=FACE_OUTER_BOUND('',#43,.T.);
#37=EDGE_LOOP('',(#75,#76,#77,#78));
#38=EDGE_LOOP('',(#79,#80,#81,#82));
#39=EDGE_LOOP('',(#83,#84));
#40=EDGE_LOOP('',(#85,#86,#87,#88,#89));
#41=EDGE_LOOP('',(#90,#91,#92,#93,#94));
#42=EDGE_LOOP('',(#95));
#43=EDGE_LOOP('',(#96));
#44=EDGE_LOOP('',(#97,#98));
#45=LINE('',#184,#50);
#46=LINE('',#186,#51);
#47=LINE('',#188,#52);
#48=LINE('',#189,#53);
#49=LINE('',#204,#54);
#50=VECTOR('',#146,10.);
#51=VECTOR('',#147,10.);
#52=VECTOR('',#148,10.);
#53=VECTOR('',#149,10.);
#54=VECTOR('',#170,5.50000000000001);
#55=VERTEX_POINT('',#182);
#56=VERTEX_POINT('',#183);
#57=VERTEX_POINT('',#185);
#58=VERTEX_POINT('',#187);
#59=VERTEX_POINT('',#195);
#60=VERTEX_POINT('',#197);
#61=VERTEX_POINT('',#199);
#62=VERTEX_POINT('',#203);
#63=EDGE_CURVE('',#55,#56,#45,.T.);
#64=EDGE_CURVE('',#55,#57,#46,.T.);
#65=EDGE_CURVE('',#57,#58,#47,.T.);
#66=EDGE_CURVE('',#56,#58,#48,.T.);
#67=EDGE_CURVE('',#56,#55,#21,.T.);
#68=EDGE_CURVE('',#58,#57,#22,.T.);
#69=EDGE_CURVE('',#59,#59,#23,.T.);
#70=EDGE_CURVE('',#59,#60,#24,.T.);
#71=EDGE_CURVE('',#60,#61,#25,.T.);
#72=EDGE_CURVE('',#61,#60,#26,.T.);
#73=EDGE_CURVE('',#61,#62,#49,.T.);
#74=EDGE_CURVE('',#62,#62,#27,.T.);
#75=ORIENTED_EDGE('',*,*,#63,.F.);
#76=ORIENTED_EDGE('',*,*,#64,.T.);
#77=ORIENTED_EDGE('',*,*,#65,.T.);
#78=ORIENTED_EDGE('',*,*,#66,.F.);
#79=ORIENTED_EDGE('',*,*,#67,.F.);
#80=ORIENTED_EDGE('',*,*,#66,.T.);
#81=ORIENTED_EDGE('',*,*,#68,.T.);
#82=ORIENTED_EDGE('',*,*,#64,.F.);
#83=ORIENTED_EDGE('',*,*,#68,.F.);
#84=ORIENTED_EDGE('',*,*,#65,.F.);
#85=ORIENTED_EDGE('',*,*,#69,.T.);
#86=ORIENTED_EDGE('',*,*,#70,.T.);
#87=ORIENTED_EDGE('',*,*,#71,.T.);
#88=ORIENTED_EDGE('',*,*,#72,.T.);
#89=ORIENTED_EDGE('',*,*,#70,.F.);
#90=ORIENTED_EDGE('',*,*,#72,.F.);
#91=ORIENTED_EDGE('',*,*,#73,.T.);
#92=ORIENTED_EDGE('',*,*,#74,.T.);
#93=ORIENTED_EDGE('',*,*,#73,.F.);
#94=ORIENTED_EDGE('',*,*,#71,.F.);
#95=ORIENTED_EDGE('',*,*,#69,.F.);
#96=ORIENTED_EDGE('',*,*,#74,.F.);
#97=ORIENTED_EDGE('',*,*,#63,.T.);
#98=ORIENTED_EDGE('',*,*,#67,.T.);
#99=PLANE('',#125);
#100=PLANE('',#129);
#101=PLANE('',#137);
#102=PLANE('',#138);
#103=ADVANCED_FACE('',(#30),#99,.F.);
#104=ADVANCED_FACE('',(#31),#28,.F.);
#105=ADVANCED_FACE('',(#32),#100,.T.);
#106=ADVANCED_FACE('',(#33),#20,.T.);
#107=ADVANCED_FACE('',(#34),#29,.T.);
#108=ADVANCED_FACE('',(#35),#101,.T.);
#109=ADVANCED_FACE('',(#36,#19),#102,.F.);
#110=CLOSED_SHELL('',(#103,#104,#105,#106,#107,#108,#109));
#111=DERIVED_UNIT_ELEMENT(#113,1.);
#112=DERIVED_UNIT_ELEMENT(#216,-3.);
#113=(
MASS_UNIT()
NAMED_UNIT(*)
SI_UNIT(.KILO.,.GRAM.)
);
#114=DERIVED_UNIT((#111,#112));
#115=MEASURE_REPRESENTATION_ITEM('density measure',
POSITIVE_RATIO_MEASURE(7850.),#114);
#116=PROPERTY_DEFINITION_REPRESENTATION(#121,#118);
#117=PROPERTY_DEFINITION_REPRESENTATION(#122,#119);
#118=REPRESENTATION('material name',(#120),#213);
#119=REPRESENTATION('density',(#115),#213);
#120=DESCRIPTIVE_REPRESENTATION_ITEM('Steel','Steel');
#121=PROPERTY_DEFINITION('material property','material name',#228);
#122=PROPERTY_DEFINITION('material property','density of part',#228);
#123=AXIS2_PLACEMENT_3D('',#179,#140,#141);
#124=AXIS2_PLACEMENT_3D('',#180,#142,#143);
#125=AXIS2_PLACEMENT_3D('',#181,#144,#145);
#126=AXIS2_PLACEMENT_3D('',#190,#150,#151);
#127=AXIS2_PLACEMENT_3D('',#191,#152,#153);
#128=AXIS2_PLACEMENT_3D('',#192,#154,#155);
#129=AXIS2_PLACEMENT_3D('',#193,#156,#157);
#130=AXIS2_PLACEMENT_3D('',#194,#158,#159);
#131=AXIS2_PLACEMENT_3D('',#196,#160,#161);
#132=AXIS2_PLACEMENT_3D('',#198,#162,#163);
#133=AXIS2_PLACEMENT_3D('',#200,#164,#165);
#134=AXIS2_PLACEMENT_3D('',#201,#166,#167);
#135=AXIS2_PLACEMENT_3D('',#202,#168,#169);
#136=AXIS2_PLACEMENT_3D('',#205,#171,#172);
#137=AXIS2_PLACEMENT_3D('',#206,#173,#174);
#138=AXIS2_PLACEMENT_3D('',#207,#175,#176);
#139=AXIS2_PLACEMENT_3D('',#208,#177,#178);
#140=DIRECTION('axis',(0.,0.,1.));
#141=DIRECTION('refdir',(1.,0.,0.));
#142=DIRECTION('axis',(0.,0.,1.));
#143=DIRECTION('refdir',(1.,0.,0.));
#144=DIRECTION('center_axis',(-1.60560792675171E-15,0.,1.));
#145=DIRECTION('ref_axis',(1.,-2.13491744991802E-32,1.60560792675171E-15));
#146=DIRECTION('',(1.,-3.56516577760082E-31,1.60560792675171E-15));
#147=DIRECTION('',(0.,1.,0.));
#148=DIRECTION('',(1.,-2.13491744991802E-32,1.60560792675171E-15));
#149=DIRECTION('',(0.,1.,0.));
#150=DIRECTION('center_axis',(0.,1.,0.));
#151=DIRECTION('ref_axis',(1.17750926854184E-15,0.,-1.));
#152=DIRECTION('center_axis',(0.,1.,2.22044604925031E-16));
#153=DIRECTION('ref_axis',(-0.838140405208419,0.,0.545454545454584));
#154=DIRECTION('center_axis',(9.36232956581808E-33,1.,-6.09292331688679E-33));
#155=DIRECTION('ref_axis',(-0.838140405208419,1.11703594142916E-32,0.545454545454584));
#156=DIRECTION('center_axis',(-9.36232956581808E-33,-1.,6.09292331688678E-33));
#157=DIRECTION('ref_axis',(1.,-9.36232956581808E-33,0.));
#158=DIRECTION('center_axis',(0.,1.,2.22044604925031E-16));
#159=DIRECTION('ref_axis',(0.,0.,1.));
#160=DIRECTION('center_axis',(0.,-1.,-2.22044604925031E-16));
#161=DIRECTION('ref_axis',(-1.,4.48216423421027E-33,-2.01858731750027E-17));
#162=DIRECTION('center_axis',(-1.,0.,0.));
#163=DIRECTION('ref_axis',(0.,0.,-1.));
#164=DIRECTION('center_axis',(0.,1.,2.22044604925031E-16));
#165=DIRECTION('ref_axis',(-1.,0.,-2.01858731750027E-17));
#166=DIRECTION('center_axis',(0.,1.,2.22044604925031E-16));
#167=DIRECTION('ref_axis',(-1.,0.,-2.01858731750027E-17));
#168=DIRECTION('center_axis',(0.,1.,0.));
#169=DIRECTION('ref_axis',(-1.,0.,0.));
#170=DIRECTION('',(0.,-1.,0.));
#171=DIRECTION('center_axis',(0.,1.,2.22044604925031E-16));
#172=DIRECTION('ref_axis',(-1.,0.,0.));
#173=DIRECTION('center_axis',(0.,1.,2.22044604925031E-16));
#174=DIRECTION('ref_axis',(-1.,0.,0.));
#175=DIRECTION('center_axis',(0.,1.,2.22044604925031E-16));
#176=DIRECTION('ref_axis',(-1.,0.,0.));
#177=DIRECTION('',(0.,0.,1.));
#178=DIRECTION('',(1.,0.,0.));
#179=CARTESIAN_POINT('',(0.,0.,0.));
#180=CARTESIAN_POINT('',(0.,0.,0.));
#181=CARTESIAN_POINT('Origin',(116.440386662812,16.51,75.5000000000002));
#182=CARTESIAN_POINT('',(116.440386662812,16.51,75.5000000000002));
#183=CARTESIAN_POINT('',(121.972113337188,16.51,75.5000000000002));
#184=CARTESIAN_POINT('',(117.793318331406,16.51,75.5000000000002));
#185=CARTESIAN_POINT('',(116.440386662812,23.51,75.5000000000002));
#186=CARTESIAN_POINT('',(116.440386662812,16.51,75.5000000000002));
#187=CARTESIAN_POINT('',(121.972113337188,23.51,75.5000000000002));
#188=CARTESIAN_POINT('',(116.440386662812,23.51,75.5000000000002));
#189=CARTESIAN_POINT('',(121.972113337188,16.51,75.5000000000002));
#190=CARTESIAN_POINT('Origin',(119.20625,16.51,73.7000000000001));
#191=CARTESIAN_POINT('Origin',(119.20625,16.51,73.7000000000001));
#192=CARTESIAN_POINT('Origin',(119.20625,23.51,73.7000000000001));
#193=CARTESIAN_POINT('Origin',(119.20625,23.51,72.9500000000001));
#194=CARTESIAN_POINT('Origin',(119.14625,26.01,73.6400000000001));
#195=CARTESIAN_POINT('',(119.14625,26.51,68.6400000000001));
#196=CARTESIAN_POINT('Origin',(119.14625,26.51,73.6400000000001));
#197=CARTESIAN_POINT('',(119.14625,26.01,68.1400000000001));
#198=CARTESIAN_POINT('Origin',(119.14625,26.01,68.6400000000001));
#199=CARTESIAN_POINT('',(124.64625,26.01,73.6400000000001));
#200=CARTESIAN_POINT('Origin',(119.14625,26.01,73.6400000000001));
#201=CARTESIAN_POINT('Origin',(119.14625,26.01,73.6400000000001));
#202=CARTESIAN_POINT('Origin',(119.14625,16.51,73.6400000000001));
#203=CARTESIAN_POINT('',(124.64625,16.51,73.6400000000001));
#204=CARTESIAN_POINT('',(124.64625,16.51,73.6400000000001));
#205=CARTESIAN_POINT('Origin',(119.14625,16.51,73.6400000000001));
#206=CARTESIAN_POINT('Origin',(119.14625,26.51,73.6400000000001));
#207=CARTESIAN_POINT('Origin',(119.14625,16.51,73.6400000000001));
#208=CARTESIAN_POINT('',(0.,0.,0.));
#209=UNCERTAINTY_MEASURE_WITH_UNIT(LENGTH_MEASURE(0.01),#215,
'DISTANCE_ACCURACY_VALUE',
'Maximum model space distance between geometric entities at asserted c
onnectivities');
#210=UNCERTAINTY_MEASURE_WITH_UNIT(LENGTH_MEASURE(0.01),#215,
'DISTANCE_ACCURACY_VALUE',
'Maximum model space distance between geometric entities at asserted c
onnectivities');
#211=UNCERTAINTY_MEASURE_WITH_UNIT(LENGTH_MEASURE(0.01),#215,
'DISTANCE_ACCURACY_VALUE',
'Maximum model space distance between geometric entities at asserted c
onnectivities');
#212=(
GEOMETRIC_REPRESENTATION_CONTEXT(3)
GLOBAL_UNCERTAINTY_ASSIGNED_CONTEXT((#209))
GLOBAL_UNIT_ASSIGNED_CONTEXT((#215,#217,#218))
REPRESENTATION_CONTEXT('','3D')
);
#213=(
GEOMETRIC_REPRESENTATION_CONTEXT(3)
GLOBAL_UNCERTAINTY_ASSIGNED_CONTEXT((#210))
GLOBAL_UNIT_ASSIGNED_CONTEXT((#215,#217,#218))
REPRESENTATION_CONTEXT('','3D')
);
#214=(
GEOMETRIC_REPRESENTATION_CONTEXT(3)
GLOBAL_UNCERTAINTY_ASSIGNED_CONTEXT((#211))
GLOBAL_UNIT_ASSIGNED_CONTEXT((#215,#217,#218))
REPRESENTATION_CONTEXT('','3D')
);
#215=(
LENGTH_UNIT()
NAMED_UNIT(*)
SI_UNIT(.MILLI.,.METRE.)
);
#216=(
LENGTH_UNIT()
NAMED_UNIT(*)
SI_UNIT($,.METRE.)
);
#217=(
NAMED_UNIT(*)
PLANE_ANGLE_UNIT()
SI_UNIT($,.RADIAN.)
);
#218=(
NAMED_UNIT(*)
SI_UNIT($,.STERADIAN.)
SOLID_ANGLE_UNIT()
);
#219=SHAPE_DEFINITION_REPRESENTATION(#221,#224);
#220=SHAPE_DEFINITION_REPRESENTATION(#222,#225);
#221=PRODUCT_DEFINITION_SHAPE('',$,#227);
#222=PRODUCT_DEFINITION_SHAPE('',$,#228);
#223=PRODUCT_DEFINITION_SHAPE($,$,#14);
#224=SHAPE_REPRESENTATION('',(#123,#139),#212);
#225=SHAPE_REPRESENTATION('',(#124),#213);
#226=PRODUCT_DEFINITION_CONTEXT('part definition',#234,'design');
#227=PRODUCT_DEFINITION('2026-02-13-11-34-16-258','HackPad_Knob',#229,#226);
#228=PRODUCT_DEFINITION('2026-02-13-11-37-40-634','Knob',#230,#226);
#229=PRODUCT_DEFINITION_FORMATION('',$,#236);
#230=PRODUCT_DEFINITION_FORMATION('',$,#237);
#231=PRODUCT_RELATED_PRODUCT_CATEGORY('HackPad_Knob','HackPad_Knob',(#236));
#232=PRODUCT_RELATED_PRODUCT_CATEGORY('Knob','Knob',(#237));
#233=APPLICATION_PROTOCOL_DEFINITION('international standard',
'automotive_design',2009,#234);
#234=APPLICATION_CONTEXT(
'Core Data for Automotive Mechanical Design Process');
#235=PRODUCT_CONTEXT('part definition',#234,'mechanical');
#236=PRODUCT('2026-02-13-11-34-16-258','HackPad_Knob',$,(#235));
#237=PRODUCT('2026-02-13-11-37-40-634','Knob',$,(#235));
#238=PRESENTATION_STYLE_ASSIGNMENT((#239));
#239=SURFACE_STYLE_USAGE(.BOTH.,#240);
#240=SURFACE_SIDE_STYLE('',(#241));
#241=SURFACE_STYLE_FILL_AREA(#242);
#242=FILL_AREA_STYLE('Steel - Satin',(#243));
#243=FILL_AREA_STYLE_COLOUR('Steel - Satin',#244);
#244=COLOUR_RGB('Steel - Satin',0.627450980392157,0.627450980392157,0.627450980392157);
ENDSEC;
END-ISO-10303-21;
